<svg width="180" height="60" viewBox="0 0 180 60" fill="none" xmlns="http://www.w3.org/2000/svg">
<path d="M113.718 26.0058H104.684V10.4414H100.898V29.6653H113.718V26.0058Z" fill="#151446"/>
<path d="M131.972 21.4316C132.493 20.8026 132.882 20.0754 133.116 19.2931C133.354 18.5224 133.477 17.721 133.482 16.9144C133.514 15.714 133.218 14.5275 132.624 13.4836C132.037 12.4838 131.159 11.6861 130.108 11.1964C128.85 10.6233 127.477 10.3455 126.094 10.3845H120.262V29.6084H124.058V23.5816H126.769C127.851 23.6157 128.927 23.4168 129.925 22.9984C130.724 22.6491 131.426 22.1115 131.972 21.4316ZM129.513 17.8865C129.418 18.2331 129.259 18.5589 129.045 18.8471C128.81 19.1676 128.505 19.4298 128.153 19.6133C127.704 19.8146 127.215 19.9123 126.723 19.8992H124.058V14.1012H126.769C127.311 14.0752 127.85 14.1894 128.336 14.4328C128.699 14.6308 129.006 14.9181 129.228 15.2677C129.404 15.5766 129.528 15.9128 129.593 16.2626C129.653 16.5101 129.687 16.763 129.696 17.0174C129.679 17.3146 129.617 17.6075 129.513 17.8865Z" fill="#151446"/>
<path d="M143.246 21.8545H151.835V29.6653H155.62V10.4414H151.835V18.2064H143.246V10.4414H139.461V29.6653H143.246V21.8545Z" fill="#151446"/>
<path d="M82.0858 47.1964L79.5355 40.8037H78.1289L82.0171 50.0554L85.9283 40.8037H84.5445L82.0858 47.1964Z" fill="#151446"/>
<path d="M90.1151 45.7784H94.1863V44.6348H90.1151V41.9473H94.6781V40.8037H88.9258V49.6552H94.8496V48.523H90.1151V45.7784Z" fill="#151446"/>
<path d="M104.686 47.2082L98.19 40.541H98.1328V49.6555H99.3222L99.2993 43.3428L105.795 49.9414H105.829V40.804H104.663L104.686 47.2082Z" fill="#151446"/>
<path d="M108.949 41.9473H111.271V49.6552H112.449V41.9473H114.827V40.8037H108.949V41.9473Z" fill="#151446"/>
<path d="M123.303 46.5217C123.305 46.8991 123.206 47.2701 123.017 47.5967C122.834 47.9062 122.569 48.1593 122.251 48.3286C121.9 48.5182 121.506 48.6128 121.107 48.6031C120.731 48.6088 120.36 48.5141 120.032 48.3286C119.717 48.1561 119.453 47.9037 119.266 47.5967C119.072 47.2723 118.973 46.8998 118.98 46.5217V40.8037H117.837V46.5217C117.823 47.1166 117.978 47.7032 118.283 48.2143C118.549 48.6953 118.945 49.0916 119.426 49.3579C119.942 49.6243 120.516 49.758 121.096 49.7467C121.68 49.7566 122.257 49.623 122.777 49.3579C123.255 49.0873 123.65 48.692 123.921 48.2143C124.225 47.7032 124.38 47.1166 124.367 46.5217V40.8037H123.223L123.303 46.5217Z" fill="#151446"/>
<path d="M132.943 45.493C133.17 45.2265 133.338 44.9146 133.435 44.5781C133.544 44.246 133.598 43.8984 133.595 43.5489C133.6 43.1546 133.518 42.7641 133.355 42.4053C133.206 42.0703 132.978 41.7762 132.692 41.5476C132.402 41.3016 132.063 41.122 131.697 41.0215C131.298 40.8926 130.881 40.8308 130.462 40.8385H128.117V49.69H129.261V46.4308H130.919L133 49.7014H134.35L132.12 46.122C132.432 45.9677 132.712 45.7541 132.943 45.493ZM130.587 45.2643H129.307V41.9478H130.667C130.938 41.9372 131.208 41.988 131.457 42.0965C131.661 42.1921 131.841 42.3328 131.983 42.5082C132.119 42.6643 132.22 42.8475 132.28 43.0457C132.338 43.223 132.369 43.4081 132.371 43.5946C132.371 43.7805 132.344 43.9654 132.291 44.1436C132.233 44.3436 132.136 44.5302 132.005 44.6925C131.86 44.8736 131.671 45.0152 131.457 45.1042C131.181 45.2185 130.885 45.273 130.587 45.2643Z" fill="#151446"/>
<path d="M138.592 45.7784H142.675V44.6348H138.592V41.9473H143.166V40.8037H137.414V49.6552H143.338V48.523H138.592V45.7784Z" fill="#151446"/>
<path d="M157.852 42.2675C157.437 41.8073 156.925 41.4442 156.354 41.204C155.646 40.9198 154.887 40.7836 154.124 40.8037H151.711V49.6552H154.559C155.125 49.657 155.686 49.5563 156.217 49.3578C156.738 49.1637 157.216 48.8683 157.623 48.4887C158.039 48.1103 158.366 47.6459 158.584 47.1278C158.831 46.562 158.952 45.9494 158.938 45.3324C158.936 44.7909 158.844 44.2536 158.664 43.7428C158.494 43.2018 158.218 42.7002 157.852 42.2675ZM157.463 46.6475C157.301 47.0325 157.055 47.3763 156.743 47.6539C156.435 47.9432 156.069 48.1618 155.668 48.2943C155.234 48.4449 154.777 48.5184 154.318 48.5116H152.9V41.9473H154.433C154.854 41.9432 155.273 42.0169 155.668 42.1646C156.055 42.3001 156.413 42.5098 156.72 42.7821C157.036 43.0719 157.286 43.427 157.452 43.8228C157.81 44.7302 157.81 45.7401 157.452 46.6475H157.463Z" fill="#151446"/>
<path d="M164.666 40.4385L160.789 49.6559H161.933L162.882 47.3687H166.313L167.216 49.6559H168.577L164.723 40.4385H164.666ZM163.328 46.3052L164.643 43.0688L165.912 46.3052H163.328Z" fill="#151446"/>
<path d="M179.145 43.5145C178.908 42.9719 178.57 42.4791 178.15 42.0622C177.742 41.6396 177.251 41.3049 176.709 41.0786C176.165 40.8259 175.571 40.697 174.971 40.7013C174.363 40.697 173.762 40.8258 173.21 41.0786C172.672 41.3079 172.186 41.6423 171.78 42.0622C171.363 42.4798 171.03 42.9726 170.797 43.5145C170.567 44.0571 170.45 44.6407 170.453 45.2299C170.446 45.8454 170.563 46.4561 170.797 47.0254C171.267 48.0979 172.13 48.9493 173.21 49.4041C173.768 49.6335 174.367 49.7502 174.971 49.7472C175.56 49.7496 176.145 49.6357 176.69 49.412C177.236 49.1883 177.732 48.8591 178.15 48.4434C178.567 48.0285 178.905 47.54 179.145 47.0025C179.385 46.4427 179.506 45.839 179.499 45.2299C179.505 44.6394 179.384 44.0546 179.145 43.5145ZM178.001 46.5565C177.831 46.9484 177.595 47.3081 177.304 47.62C177.01 47.9316 176.656 48.1806 176.263 48.352C175.854 48.5256 175.415 48.6151 174.971 48.6151C174.527 48.6151 174.087 48.5256 173.678 48.352C173.282 48.1808 172.925 47.9319 172.626 47.62C172.009 46.9859 171.661 46.1377 171.654 45.2528C171.649 44.802 171.735 44.3547 171.906 43.9376C172.06 43.5307 172.297 43.1606 172.603 42.8512C172.904 42.5393 173.261 42.287 173.656 42.1079C174.064 41.9322 174.504 41.8426 174.948 41.8449C175.388 41.8425 175.825 41.9321 176.229 42.1079C176.626 42.2824 176.987 42.5307 177.292 42.8398C177.6 43.1715 177.841 43.5599 178.001 43.9834C178.336 44.8282 178.336 45.7689 178.001 46.6137V46.5565Z" fill="#151446"/>
<path d="M86.6144 9.70996L77.9688 29.6315H81.7426L83.3093 25.8805H89.6678L91.143 29.6315H95.4658L86.8202 9.70996H86.6144ZM84.5673 22.7013L86.5229 18.0354L88.3526 22.7013L86.5 21.6606L84.5673 22.7013Z" fill="#151446"/>
<path d="M169.7 9.70996L161.055 29.6315H164.771L166.338 25.8805H172.697L174.172 29.6315H178.552L169.906 9.70996H169.7ZM167.653 22.7013L169.609 18.0354L171.45 22.7013L169.586 21.6606L167.653 22.7013Z" fill="#151446"/>
<path d="M29.7336 59.4672C46.155 59.4672 59.4672 46.155 59.4672 29.7336C59.4672 13.3122 46.155 0 29.7336 0C13.3122 0 0 13.3122 0 29.7336C0 46.155 13.3122 59.4672 29.7336 59.4672Z" fill="#000749"/>
<path d="M29.7344 11.7266V23.5234L31.873 28.8355L29.7344 27.0418V32.6988C29.7344 32.6988 29.7344 32.6988 29.8034 32.7677C33.2527 37.045 37.53 40.6323 42.3591 43.2539L29.7344 11.7266Z" fill="url(#paint0_linear_1812_24222)"/>
<path d="M29.7341 11.7266V23.5234L27.5955 28.8355L29.7341 27.0418V32.6988C29.7341 32.6988 29.7341 32.6988 29.6651 32.7677C26.2157 37.045 21.9385 40.6323 17.1094 43.2539L29.7341 11.7266Z" fill="url(#paint1_linear_1812_24222)"/>
<path d="M29.7334 40.0108C31.3336 40.0108 32.6309 38.7135 32.6309 37.1133C32.6309 35.5131 31.3336 34.2158 29.7334 34.2158C28.1332 34.2158 26.8359 35.5131 26.8359 37.1133C26.8359 38.7135 28.1332 40.0108 29.7334 40.0108Z" fill="#F5CC02"/>
<defs>
<linearGradient id="paint0_linear_1812_24222" x1="36.023" y1="11.6378" x2="36.023" y2="43.6225" gradientUnits="userSpaceOnUse">
<stop stop-color="white"/>
<stop offset="1" stop-color="white" stop-opacity="0.6"/>
</linearGradient>
<linearGradient id="paint1_linear_1812_24222" x1="23.4038" y1="43.3996" x2="23.4038" y2="12.0105" gradientUnits="userSpaceOnUse">
<stop stop-color="white"/>
<stop offset="1" stop-color="white" stop-opacity="0.6"/>
</linearGradient>
</defs>
</svg>
