<svg viewBox="0 0 35 25" fill="none" xmlns="http://www.w3.org/2000/svg">
<path d="M5.98708 2.25043C8.09738 1.07129 10.4933 0.127451 12.9474 0.249066C12.9183 0.323093 12.8628 0.468503 12.8337 0.54253C10.332 1.43878 7.76682 2.36412 5.69089 4.08524C7.4389 3.43486 9.14197 2.63908 10.9693 2.21342C15.7585 1.06865 20.8994 1.14797 25.5616 2.81886C26.7093 3.21807 27.8015 3.75477 28.9307 4.2095C26.8389 2.47516 24.2711 1.51545 21.7615 0.571612C22.0656 0.399764 22.3671 0.130096 22.7532 0.206766C25.3316 0.420915 27.8147 1.42292 29.9488 2.86644C30.4645 3.17313 30.7686 3.70189 31.0093 4.23594C33.1884 8.96837 34.5318 14.1027 34.7698 19.311C34.7539 19.8556 34.8623 20.4875 34.4524 20.9237C32.3791 23.5464 29.0127 24.8128 25.7441 24.9529C25.1015 24.1677 24.4536 23.3904 23.8189 22.6025C25.7943 21.8993 27.7618 20.9078 29.0391 19.1814C24.8503 21.5767 19.9315 22.9489 15.0974 22.2535C11.9293 21.8834 8.91454 20.7281 6.12724 19.2105C7.39131 20.8497 9.23717 21.8913 11.1676 22.547C10.5303 23.3772 9.8692 24.1862 9.1975 24.9846C5.7385 24.8471 2.17371 23.4062 0.15332 20.4875C0.227366 14.8086 1.62367 9.17459 4.04603 4.04559C4.37659 3.16784 5.22282 2.69988 5.98708 2.25043ZM11.2152 11.2711C10.0543 11.5567 9.20808 12.6036 8.98859 13.7563C8.54696 15.5885 9.97497 17.693 11.9187 17.7062C13.6931 17.7458 15.0974 16.0062 14.9413 14.2877C15.0154 12.408 13.0717 10.7001 11.2152 11.2711ZM22.0577 11.2632C20.9073 11.5514 20.0161 12.5851 19.8231 13.7457C19.4423 15.4298 20.5239 17.3545 22.2772 17.6665C24.1045 18.0367 25.7996 16.3393 25.7943 14.5574C25.9477 12.6089 24.0278 10.6974 22.0577 11.2632Z" fill="white"/>
</svg>
