<svg  viewBox="0 0 68 68" fill="none" xmlns="http://www.w3.org/2000/svg">
<path d="M1.62598 5.63162C4.6272 3.95895 7.63166 2.29359 10.6313 0.620117C13.6398 2.28629 16.6418 3.96301 19.6487 5.63162C16.6418 7.30022 13.6398 8.97694 10.6321 10.6431C7.63166 8.96964 4.6272 7.30428 1.62598 5.63162Z" fill="#958CF1"/>
<path d="M48.3691 5.63145C51.3704 3.95879 54.3748 2.29343 57.3752 0.619141C60.3829 2.28694 63.385 3.96285 66.3919 5.63145C63.385 7.30006 60.3821 8.97678 57.3744 10.6438C54.3748 8.96866 51.3695 7.30412 48.3691 5.63145Z" fill="#958CF1"/>
<path d="M23.6174 7.58223C27.6282 6.02076 31.9937 5.37717 36.2837 5.72453C39.0593 5.9396 41.7976 6.57588 44.3938 7.57574C44.3946 8.51636 44.3922 9.45698 44.3946 10.3984C40.9819 8.90267 37.2422 8.16251 33.5178 8.23555C30.1181 8.2948 26.7347 9.03983 23.6182 10.3976C23.6166 9.45941 23.6174 8.52042 23.6174 7.58223Z" fill="#FF96CE"/>
<path d="M0.242286 7.83887C3.27029 9.5164 6.29179 11.2069 9.32304 12.8788C9.34495 16.6956 9.32061 20.5133 9.33521 24.331C9.10229 24.0161 8.72815 23.874 8.40109 23.6825C5.68392 22.1746 2.97244 20.6553 0.24959 19.1588C0.231736 15.3857 0.245533 11.6119 0.242286 7.83887Z" fill="#958CF1"/>
<path d="M11.9354 12.8827C14.9658 11.2092 17.993 9.5276 21.0145 7.83789C21.0153 11.6134 21.0299 15.3896 21.0072 19.1651C17.9743 20.8313 14.9569 22.5258 11.9289 24.2009C11.9313 20.4279 11.9191 16.6549 11.9354 12.8827Z" fill="#958CF1"/>
<path d="M46.9885 7.83789C50.0173 9.51624 53.0397 11.2059 56.0709 12.8794C56.088 16.6533 56.0742 20.4271 56.0782 24.2001C53.0526 22.5161 50.0287 20.8288 46.9958 19.1578C46.9788 15.3848 46.9934 11.6117 46.9885 7.83789Z" fill="#958CF1"/>
<path d="M58.6798 12.8828C61.7119 11.2094 64.7366 9.5237 67.763 7.83887C67.7581 11.6127 67.7752 15.3874 67.7541 19.162C64.9079 20.7284 62.0738 22.3191 59.2301 23.8903C59.0134 23.9942 58.8219 24.141 58.6709 24.3269C58.6798 20.5125 58.6636 16.6972 58.6798 12.8828Z" fill="#958CF1"/>
<path d="M6.73522 42.6782C5.02603 37.1968 5.02603 31.2041 6.73359 25.7227C7.5054 26.1341 8.27154 26.557 9.03604 26.9822C9.03361 27.0171 9.02793 27.0877 9.02549 27.1234C7.70992 31.7551 7.72696 36.752 9.06039 41.378C8.28695 41.8146 7.5119 42.248 6.73522 42.6782Z" fill="#FF96CE"/>
<path d="M58.9482 27.0184C59.7184 26.5858 60.4959 26.1646 61.2596 25.7207C62.9964 31.194 62.9728 37.1956 61.2726 42.6762C60.4975 42.2436 59.7111 41.8338 58.9434 41.3907C60.3036 36.7281 60.2857 31.6842 58.9482 27.0184Z" fill="#FF96CE"/>
<path d="M8.88863 44.4042C9.48839 44.1299 10.0524 43.7841 10.6319 43.4717C13.6404 45.137 16.6425 46.8162 19.6502 48.4824C16.6433 50.151 13.6404 51.8285 10.6327 53.4947C7.63149 51.822 4.62703 50.1534 1.625 48.4832C4.04594 47.123 6.47013 45.7684 8.88863 44.4042Z" fill="#958CF1"/>
<path d="M48.3691 48.484C51.3704 46.8113 54.3748 45.1443 57.376 43.4717C60.3862 45.1338 63.385 46.8186 66.3951 48.4832C63.3858 50.1493 60.3846 51.8293 57.376 53.4947C54.3748 51.822 51.3712 50.1542 48.3691 48.484Z" fill="#958CF1"/>
<path d="M0.241946 50.6914C3.27076 52.3689 6.29389 54.0578 9.32432 55.7329C9.33974 59.506 9.32757 63.279 9.33082 67.052C6.30525 65.3696 3.28374 63.6799 0.250062 62.0121C0.228961 58.2391 0.246004 54.4644 0.241946 50.6914Z" fill="#958CF1"/>
<path d="M11.9355 55.7311C14.9684 54.0625 17.9915 52.3736 21.0171 50.6904C21.0122 54.4643 21.0276 58.2381 21.0089 62.012C17.9777 63.6846 14.9562 65.3743 11.9282 67.0519C11.9314 63.278 11.9168 59.5042 11.9355 55.7311Z" fill="#958CF1"/>
<path d="M46.9887 50.6904C50.0167 52.3663 53.035 54.0593 56.0679 55.7271C56.0914 58.398 56.0703 61.0697 56.0784 63.7414C56.0687 64.8452 56.0938 65.9497 56.0654 67.0535C53.0512 65.3573 50.024 63.683 46.996 62.0111C46.9774 58.2381 46.992 54.4643 46.9887 50.6904Z" fill="#958CF1"/>
<path d="M58.6806 55.7311C61.7135 54.0617 64.7366 52.3745 67.7614 50.6904C67.7573 54.4643 67.7735 58.2397 67.7532 62.0136C64.7212 63.6838 61.7013 65.3751 58.6733 67.0519C58.6765 63.278 58.6619 59.5042 58.6806 55.7311Z" fill="#958CF1"/>
<path d="M23.6185 58.0018C26.5605 59.28 29.7378 60.0194 32.9444 60.146C36.8578 60.3099 40.8053 59.5714 44.3933 58.001C44.3958 58.9416 44.3925 59.8814 44.3949 60.8212C39.0807 62.8907 33.1448 63.3282 27.5888 62.0361C26.2375 61.7294 24.9106 61.3171 23.6177 60.8172C23.6177 59.879 23.6161 58.94 23.6185 58.0018Z" fill="#FF96CE"/>
<g opacity="0.6">
<path opacity="0.8" d="M34.2666 30.6357L26.8896 33.9908L34.2666 38.3491L41.6407 33.9908L34.2666 30.6357Z" fill="#958CF1"/>
</g>
<g opacity="0.45">
<path d="M26.8896 33.9899L34.2666 38.3482V21.75L26.8896 33.9899Z" fill="#958CF1"/>
</g>
<g opacity="0.8">
<path d="M34.2666 21.75V38.3482L41.6407 33.9899L34.2666 21.75Z" fill="#958CF1"/>
</g>
<g opacity="0.45">
<path opacity="0.75" d="M26.8896 35.3877L34.2666 45.7804V39.746L26.8896 35.3877Z" fill="#958CF1"/>
</g>
<g opacity="0.8">
<path d="M34.2666 39.747V45.7814L41.6465 35.3887L34.2666 39.747Z" fill="#958CF1"/>
</g>
</svg>
