<svg viewBox="0 0 84 84" fill="none" xmlns="http://www.w3.org/2000/svg">
<path d="M40.0945 5.08817C43.8942 4.69164 47.8184 5.64155 51.001 7.75749C53.7488 9.56145 55.9432 12.1942 57.2155 15.2252C58.7188 18.752 58.9297 22.8026 57.8186 26.4707C56.8974 29.567 55.0525 32.3819 52.5775 34.4586C49.6877 36.9136 45.936 38.3288 42.1451 38.3933C40.2566 38.4587 38.3507 38.2286 36.5589 37.6186C32.7018 36.3637 29.3536 33.6386 27.3292 30.1239C25.8877 27.6498 25.0973 24.7983 25.0738 21.9338C25.032 18.8618 25.8564 15.7838 27.4372 13.1502C29.0268 10.4878 31.3728 8.28386 34.1293 6.86336C35.9829 5.90387 38.0187 5.30081 40.0945 5.08817ZM37.6335 13.0691C37.5847 13.6103 37.6239 14.1559 37.6117 14.6997C37.0923 14.7075 36.572 14.6822 36.0535 14.7127C35.2831 14.7737 34.6923 15.5729 34.843 16.3285C34.9397 16.9899 35.5637 17.4779 36.2173 17.5023C36.2173 20.2815 36.2165 23.0615 36.2182 25.8406C35.6343 25.8659 35.0713 26.2389 34.8944 26.8071C34.6077 27.5818 35.1681 28.5047 35.9812 28.6206C36.5232 28.6703 37.0688 28.6311 37.6117 28.6441C37.6178 29.1374 37.6012 29.6315 37.6169 30.1248C37.637 30.6747 38.0317 31.1697 38.5442 31.3527C39.3119 31.6516 40.2462 31.1078 40.3743 30.2973C40.4327 29.7483 40.3865 29.194 40.4004 28.6433C40.8649 28.6441 41.3294 28.6415 41.7939 28.6424C41.8 29.1365 41.7843 29.6306 41.8009 30.1248C41.8174 30.6538 42.1861 31.1322 42.6697 31.33C43.4445 31.676 44.4266 31.1296 44.5573 30.2973C44.6157 29.75 44.5678 29.1975 44.5835 28.6476C45.6798 28.638 46.7718 28.2049 47.5456 27.4215C48.4999 26.4838 48.9522 25.0676 48.7143 23.7508C48.5243 22.6066 47.8297 21.5625 46.8519 20.9394C47.3679 19.9468 47.5299 18.759 47.1909 17.6827C46.8214 16.4226 45.8184 15.3855 44.5844 14.9463C44.5774 14.3711 44.5939 13.7942 44.5765 13.219C44.553 12.5916 44.0423 12.0269 43.4236 11.931C42.6933 11.7863 41.9203 12.3319 41.8157 13.0691C41.7669 13.6103 41.8096 14.1559 41.7948 14.6997C41.3294 14.7023 40.8649 14.6988 40.4004 14.6997C40.3961 14.2317 40.4048 13.7646 40.3987 13.2966C40.4048 12.6909 39.9638 12.1184 39.3808 11.9615C38.6182 11.7271 37.7407 12.277 37.6335 13.0691Z" fill="#FF96CE"/>
<path d="M37.6335 13.0691C37.5847 13.6103 37.6239 14.1559 37.6117 14.6997C37.0923 14.7075 36.572 14.6822 36.0535 14.7127C35.2831 14.7737 34.6923 15.5729 34.843 16.3285C34.9397 16.9899 35.5637 17.4779 36.2173 17.5023C36.2173 20.2815 36.2165 23.0615 36.2182 25.8406C35.6343 25.8659 35.0713 26.2389 34.8944 26.8071C34.6077 27.5818 35.1681 28.5047 35.9812 28.6206C36.5232 28.6703 37.0688 28.6311 37.6117 28.6441C37.6178 29.1374 37.6012 29.6315 37.6169 30.1248C37.637 30.6747 38.0317 31.1697 38.5442 31.3527C39.3119 31.6516 40.2462 31.1078 40.3743 30.2973C40.4327 29.7483 40.3865 29.194 40.4004 28.6433C40.8649 28.6441 41.3294 28.6415 41.7939 28.6424C41.8 29.1365 41.7843 29.6306 41.8009 30.1248C41.8174 30.6538 42.1861 31.1322 42.6697 31.33C43.4445 31.676 44.4266 31.1296 44.5573 30.2973C44.6157 29.75 44.5678 29.1975 44.5835 28.6476C45.6798 28.638 46.7718 28.2049 47.5456 27.4215C48.4999 26.4838 48.9522 25.0676 48.7143 23.7508C48.5243 22.6066 47.8297 21.5625 46.8519 20.9394C47.3679 19.9468 47.5299 18.759 47.1909 17.6827C46.8214 16.4226 45.8184 15.3855 44.5844 14.9463C44.5774 14.3711 44.5939 13.7942 44.5765 13.219C44.553 12.5916 44.0423 12.0269 43.4236 11.931C42.6933 11.7863 41.9203 12.3319 41.8157 13.0691C41.7669 13.6103 41.8096 14.1559 41.7948 14.6997C41.3294 14.7023 40.8649 14.6988 40.4004 14.6997C40.3961 14.2317 40.4048 13.7646 40.3987 13.2966C40.4048 12.6909 39.9638 12.1184 39.3808 11.9615C38.6182 11.7271 37.7407 12.277 37.6335 13.0691Z" fill="#FF96CE"/>
<g opacity="0.6">
<path opacity="0.8" d="M41.7997 18.1709L34.1992 21.6276L41.7997 26.1179L49.3972 21.6276L41.7997 18.1709Z" fill="white"/>
</g>
<g opacity="0.45">
<path d="M34.1992 21.6283L41.7997 26.1186V9.01758L34.1992 21.6283Z" fill="white"/>
</g>
<g opacity="0.8">
<path d="M41.7979 9.01758V26.1186L49.3953 21.6283L41.7979 9.01758Z" fill="white"/>
</g>
<g opacity="0.45">
<path opacity="0.75" d="M34.1992 23.0684L41.7997 33.7759V27.5587L34.1992 23.0684Z" fill="white"/>
</g>
<g opacity="0.8">
<path d="M41.7979 27.5587V33.7759L49.4013 23.0684L41.7979 27.5587Z" fill="white"/>
</g>
<path d="M6.12361 43.8902C6.15673 43.1703 6.81731 42.5594 7.53889 42.5882C12.9159 42.5838 18.292 42.5873 23.669 42.5864C24.4551 42.5943 25.242 42.5699 26.0281 42.5978C26.5179 42.6318 26.8839 42.9864 27.1994 43.3263C29.7415 45.8675 32.2836 48.4079 34.8239 50.95C27.3893 50.957 19.9548 50.9509 12.5194 50.9535C10.569 49.0092 8.62649 47.0571 6.67526 45.1137C6.32754 44.8087 6.08265 44.3634 6.12361 43.8902Z" fill="#958CF1"/>
<path d="M45.2391 43.3274C45.5842 42.937 46.0269 42.5614 46.5829 42.5875C56.4062 42.5866 66.2303 42.584 76.0536 42.5884C76.7107 42.5657 77.332 43.0677 77.4444 43.7152C77.5447 44.1928 77.3582 44.7 77.0043 45.0276C75.027 47.0015 73.0539 48.9798 71.0757 50.9528C59.926 50.9493 48.7755 50.9598 37.625 50.9476C40.1558 48.4003 42.7022 45.8686 45.2391 43.3274Z" fill="#958CF1"/>
<path d="M12.514 53.7416C19.9503 53.7407 27.3866 53.7416 34.8238 53.7416C34.8247 62.5723 34.8238 71.4038 34.8238 80.2344C32.965 80.2344 31.1052 80.2353 29.2464 80.2336C29.2446 77.9076 29.249 75.5808 29.2446 73.2548C29.2577 72.5175 28.5971 71.85 27.8572 71.87C25.1243 71.8648 22.3913 71.8718 19.6584 71.8665C19.1538 71.8282 18.6266 72.0382 18.3416 72.4661C18.1368 72.7441 18.0784 73.0962 18.0897 73.4352C18.0932 75.701 18.0915 77.9677 18.0915 80.2344C16.6954 80.2336 15.2993 80.2371 13.904 80.2327C13.3498 80.2379 12.8225 79.871 12.6151 79.3612C12.4792 79.0301 12.5184 78.6649 12.5132 78.3172C12.5149 70.1253 12.5132 61.9335 12.514 53.7416Z" fill="#FF96CE"/>
<path d="M37.6127 53.7416C48.7676 53.7416 59.9225 53.7407 71.0773 53.7416C71.0756 62.1112 71.0808 70.48 71.0747 78.8488C71.093 79.6209 70.368 80.292 69.6011 80.2344C58.9386 80.2344 48.2761 80.2344 37.6127 80.2344C37.6118 71.4038 37.6127 62.5723 37.6127 53.7416Z" fill="#958CF1"/>
<path d="M20.8785 74.6568C22.7382 74.656 24.5971 74.656 26.4568 74.6577C26.4559 76.5166 26.4559 78.3754 26.4559 80.2343C24.5971 80.2351 22.7382 80.2334 20.8794 80.2351C20.8776 78.3754 20.8776 76.5166 20.8785 74.6568Z" fill="#958CF1"/>
</svg>
