<svg viewBox="0 0 60 80" fill="none" xmlns="http://www.w3.org/2000/svg">
<path d="M29.6672 0.0863412C30.1704 -0.108859 30.7716 0.0368903 31.1447 0.422953C34.1698 3.44205 37.1907 6.46635 40.2132 9.48892C40.4752 9.73964 40.6539 10.0823 40.6722 10.4493C40.7338 11.1928 40.0996 11.9033 39.3509 11.912C38.1033 11.9311 36.8558 11.9068 35.6082 11.9233C34.9003 11.9467 34.2947 12.5965 34.3121 13.3036C34.3112 15.79 34.3104 18.2764 34.313 20.7637C34.2765 21.4317 34.7823 22.0685 35.4408 22.183C38.9934 22.8423 42.4281 24.155 45.4966 26.0645C50.551 29.1851 54.599 33.895 56.9362 39.3554C59.3576 44.9468 59.9276 51.3069 58.5872 57.2479C57.5583 61.8624 55.3764 66.2132 52.2957 69.8006C49.5316 73.0305 46.0562 75.6488 42.1834 77.4038C37.4136 79.5797 32.0478 80.4073 26.8407 79.813C20.924 79.1546 15.2397 76.6092 10.797 72.6488C8.13445 70.289 5.91004 67.4365 4.27036 64.2794C0.935472 57.9003 0.104352 50.2667 1.98174 43.3184C2.96208 39.6504 4.67204 36.1793 6.97887 33.1628C9.9008 29.323 13.7944 26.2293 18.1998 24.2591C20.321 23.3013 22.5619 22.6185 24.8479 22.1839C25.5081 22.0746 26.0122 21.4369 25.981 20.7706C25.9862 18.3406 25.9792 15.9114 25.9836 13.4814C26.079 12.6876 25.411 11.8964 24.6007 11.9189C23.38 11.912 22.1585 11.9285 20.9387 11.9111C20.3488 11.8973 19.8074 11.4531 19.6651 10.8831C19.5307 10.4077 19.6886 9.87585 20.0399 9.53316C23.0035 6.56612 25.9705 3.60341 28.9341 0.637239C29.1475 0.417748 29.3696 0.186978 29.6672 0.0863412ZM28.1967 27.266C25.6721 27.4734 23.1805 28.0893 20.8528 29.0896C17.7236 30.4283 14.8936 32.4592 12.6162 34.9881C10.6321 37.1848 9.06621 39.7588 8.03208 42.5324C6.67002 46.1675 6.24318 50.1417 6.76545 53.9868C7.21224 57.3112 8.38865 60.5333 10.181 63.3676C13.4309 68.5478 18.7646 72.3781 24.7282 73.7532C30.3127 75.0823 36.3777 74.2867 41.4139 71.5227C45.7899 69.1499 49.3755 65.3552 51.4932 60.85C54.2433 55.0842 54.4793 48.1897 52.1499 42.2435C49.9082 36.4127 45.2433 31.57 39.4992 29.113C35.9605 27.5749 32.0391 26.952 28.1967 27.266Z" fill="#958CF1"/>
<path d="M28.3073 30.0297C31.7619 29.7529 35.2859 30.3377 38.4507 31.757C41.4915 33.1069 44.1948 35.2038 46.2674 37.8065C48.4172 40.4889 49.8799 43.7163 50.4846 47.1006C51.1049 50.5795 50.8386 54.2189 49.6778 57.5598C47.9661 62.5917 44.2339 66.8887 39.5031 69.3066C36.7295 70.7363 33.6289 71.5275 30.5091 71.5952C27.4536 71.6811 24.3833 71.0703 21.5898 69.8332C18.4137 68.4355 15.6028 66.225 13.4885 63.4749C11.3804 60.7473 9.96974 57.4844 9.42925 54.0792C8.85406 50.458 9.23579 46.6824 10.5736 43.266C11.8098 40.0578 13.8659 37.1714 16.4851 34.9444C19.7783 32.117 23.9799 30.3698 28.3073 30.0297Z" fill="#FF96CE"/>
<g opacity="0.6">
<path opacity="0.8" d="M30.6126 46.4727L21.4229 50.6521L30.6126 56.0814L39.7986 50.6521L30.6126 46.4727Z" fill="white"/>
</g>
<g opacity="0.45">
<path d="M21.4229 50.6518L30.6126 56.0811V35.4043L21.4229 50.6518Z" fill="white"/>
</g>
<g opacity="0.8">
<path d="M30.6094 35.4043V56.0811L39.7955 50.6518L30.6094 35.4043Z" fill="white"/>
</g>
<g opacity="0.45">
<path opacity="0.75" d="M21.4229 52.3926L30.6126 65.3391V57.8219L21.4229 52.3926Z" fill="white"/>
</g>
<g opacity="0.8">
<path d="M30.6094 57.8219V65.3391L39.8027 52.3926L30.6094 57.8219Z" fill="white"/>
</g>
</svg>
