<svg width="158" height="40" viewBox="0 0 158 40" fill="none" xmlns="http://www.w3.org/2000/svg">
<path d="M50.146 15.2367V19.6521H64.8764V23.9952H50.146V33.0434H44.5V10.8936H65.6726V15.2367H50.146Z" fill="#FCFCFC"/>
<path d="M97.1246 10.8936V25.6601C97.1246 26.7459 96.835 27.7954 96.3283 28.7365C95.7854 29.7136 94.953 30.5461 93.8672 31.2699C92.7815 31.9938 91.37 32.5729 89.7413 33.0072C88.1126 33.4415 86.1582 33.6586 83.9505 33.6586C81.7428 33.6586 79.7884 33.4415 78.1235 33.0072C76.4948 32.5729 75.0833 31.9938 73.9976 31.2699C72.9118 30.5461 72.0794 29.6775 71.5365 28.7365C70.9936 27.7954 70.7402 26.7459 70.7402 25.6601V10.8936H76.3501V23.4885C76.3501 24.2848 76.4586 25.0086 76.6396 25.7325C76.8568 26.4563 77.2549 27.0716 77.7978 27.6145C78.3407 28.1574 79.1369 28.5555 80.1503 28.8812C81.1275 29.1708 82.4304 29.3517 83.9867 29.3517C85.543 29.3517 86.8097 29.207 87.7869 28.8812C88.7641 28.5917 89.5603 28.1574 90.1032 27.6145C90.6823 27.0716 91.0442 26.4563 91.2614 25.7325C91.4423 25.0448 91.5509 24.2848 91.5509 23.5247V10.8936H97.1246Z" fill="#FCFCFC"/>
<path d="M50.146 15.2367V19.6521H64.8764V23.9952H50.146V33.0434H44.5V10.8936H65.6726V15.2367H50.146Z" fill="#FCFCFC"/>
<path d="M97.1246 10.8936V25.6601C97.1246 26.7459 96.835 27.7954 96.3283 28.7365C95.7854 29.7136 94.953 30.5461 93.8672 31.2699C92.7815 31.9938 91.37 32.5729 89.7413 33.0072C88.1126 33.4415 86.1582 33.6586 83.9505 33.6586C81.7428 33.6586 79.7884 33.4415 78.1235 33.0072C76.4948 32.5729 75.0833 31.9938 73.9976 31.2699C72.9118 30.5461 72.0794 29.6775 71.5365 28.7365C70.9936 27.7954 70.7402 26.7459 70.7402 25.6601V10.8936H76.3501V23.4885C76.3501 24.2848 76.4586 25.0086 76.6396 25.7325C76.8568 26.4563 77.2549 27.0716 77.7978 27.6145C78.3407 28.1574 79.1369 28.5555 80.1503 28.8812C81.1275 29.1708 82.4304 29.3517 83.9867 29.3517C85.543 29.3517 86.8097 29.207 87.7869 28.8812C88.7641 28.5917 89.5603 28.1574 90.1032 27.6145C90.6823 27.0716 91.0442 26.4563 91.2614 25.7325C91.4423 25.0448 91.5509 24.2848 91.5509 23.5247V10.8936H97.1246Z" fill="#FCFCFC"/>
<path d="M11.8547 24.7552C7.72874 22.8008 4.18187 20.2673 1.86555 17.5891C1.10551 16.7205 0.52643 15.888 0.0921205 15.0918C-0.197419 18.2767 0.200698 22.0769 1.21409 25.9495C2.37225 30.2564 4.14568 34.0567 6.24484 36.7349C7.22204 37.9654 8.23543 38.9065 9.17643 39.4131C10.0451 39.9198 10.8775 40.0646 11.5651 39.8836C12.289 39.7027 12.9043 39.1598 13.411 38.2912C13.9538 37.3502 14.3882 36.0472 14.6053 34.491C14.9672 31.9937 14.8587 28.9897 14.3158 25.841C13.5195 25.5152 12.6871 25.1533 11.8547 24.7552Z" fill="#FCFCFC"/>
<path d="M27.4899 19.2174C25.7889 17.263 23.364 15.381 20.541 13.7524C19.6724 14.0419 18.7676 14.3315 17.8627 14.5848C15.8722 15.1277 13.9178 15.4896 12.0358 15.6706C11.8548 15.6706 11.6738 15.7068 11.5291 15.7068C11.3481 15.7068 11.2033 15.743 11.0224 15.743C10.2985 15.7792 9.57467 15.8153 8.88701 15.8153C7.72885 15.8153 6.64308 15.743 5.62969 15.5982C3.92864 15.3448 2.55333 14.9105 1.46755 14.2953C1.06943 14.0419 0.707509 13.7886 0.417969 13.499C0.417969 13.5352 0.454161 13.5714 0.454161 13.6076C0.816086 14.621 1.53994 15.8153 2.58952 16.9735C4.83345 19.507 8.27174 21.9681 12.2891 23.8863C12.9044 24.1758 13.5196 24.4653 14.1349 24.7187C14.3159 24.7911 14.4968 24.8635 14.6778 24.9358C14.8588 25.0082 15.0397 25.0806 15.2207 25.153C18.2609 26.3112 21.2286 26.9626 23.7983 27.0712C25.3546 27.1436 26.7299 26.9626 27.7433 26.6007C28.6843 26.2388 29.3358 25.7321 29.6615 25.0806C29.8063 24.7549 29.8787 24.393 29.8787 23.9948C29.8787 23.5967 29.8063 23.1262 29.6253 22.6195C29.2272 21.5699 28.5033 20.3756 27.4899 19.2174Z" fill="#FCFCFC"/>
<path d="M31.5792 3.25732C31.3983 2.53347 30.8554 1.9182 29.9868 1.41151C29.0458 0.86862 27.7428 0.43431 26.1866 0.217155C25.2094 0.0723851 24.1598 0 23.074 0C20.3958 0 17.3918 0.43431 14.3516 1.23054C10.0085 2.3887 6.17211 4.16214 3.53006 6.2613C2.29952 7.2385 1.35851 8.25189 0.815624 9.19289C0.779432 9.26528 0.743239 9.30147 0.707047 9.37385C0.634662 9.55482 0.526084 9.69959 0.489892 9.88055C0.417507 10.0615 0.381314 10.2063 0.345122 10.3872C0.272737 10.7492 0.272737 11.1111 0.30893 11.4368C0.30893 11.473 0.345122 11.5454 0.345122 11.5816C0.381314 11.7626 0.489892 11.9797 0.598469 12.1607C0.888009 12.6312 1.32232 13.0655 1.97378 13.4274C2.91479 13.9703 4.21772 14.4046 5.77399 14.6218C7.22169 14.8389 8.85036 14.8751 10.5514 14.8027C10.7324 14.8027 10.9133 14.7665 11.0943 14.7665C11.2753 14.7665 11.4562 14.7303 11.6372 14.7303C13.5916 14.5494 15.6184 14.1875 17.6813 13.6446C18.2966 13.4636 18.8757 13.3188 19.4548 13.1017C19.6719 13.0293 19.8891 12.9569 20.07 12.8845C20.251 12.8121 20.4681 12.7398 20.6853 12.6674C23.7617 11.5816 26.4399 10.1701 28.4667 8.57762C29.6972 7.60042 30.6382 6.58703 31.1811 5.64603C31.6154 4.77741 31.7602 3.94498 31.5792 3.25732Z" fill="#FCFCFC"/>
<path d="M128.974 33.0434H120.867L107.729 23.4162V33.0434H102.083V10.8936H107.729V19.7245L120.577 10.8936H127.924L113.049 21.498L128.974 33.0434Z" fill="#FCFCFC"/>
<path d="M158 10.8936V25.6601C158 26.7459 157.71 27.7954 157.203 28.7365C156.66 29.7136 155.828 30.5461 154.742 31.2699C153.656 31.9938 152.245 32.5729 150.616 33.0072C148.988 33.4415 147.033 33.6586 144.825 33.6586C142.618 33.6586 140.663 33.4415 138.998 33.0072C137.334 32.5729 135.958 31.9938 134.873 31.2699C133.787 30.5461 132.954 29.6775 132.411 28.7365C131.869 27.7954 131.615 26.7459 131.615 25.6601V10.8936H137.225V23.4885C137.225 24.2848 137.334 25.0086 137.515 25.7325C137.732 26.4563 138.094 27.0716 138.673 27.6145C139.216 28.1574 140.012 28.5555 141.025 28.8812C142.002 29.1708 143.305 29.3517 144.862 29.3517C146.418 29.3517 147.685 29.207 148.662 28.8812C149.639 28.5917 150.435 28.1574 150.978 27.6145C151.557 27.0716 151.919 26.4563 152.136 25.7325C152.317 25.0448 152.426 24.2848 152.426 23.5247V10.8936H158Z" fill="#FCFCFC"/>
</svg>
