<svg width="118" height="34" viewBox="0 0 118 34" fill="none" xmlns="http://www.w3.org/2000/svg">
<path d="M39.2924 14.2438V17.0813H49.8946V20.56H39.2924V27.0781H34.8877V10.7651H50.4764V14.2438H39.2924Z" fill="#1E2029"/>
<path d="M73.1517 21.5811C73.1517 22.3963 72.9499 23.1641 72.5462 23.8843C72.1425 24.6046 71.5371 25.2339 70.7297 25.7721C69.9224 26.3103 68.9132 26.7377 67.7022 27.0543C66.4991 27.363 65.0902 27.5173 63.4756 27.5173C61.8609 27.5173 60.4441 27.363 59.2252 27.0543C58.0142 26.7377 57.005 26.3103 56.1977 25.7721C55.3903 25.2339 54.7848 24.6046 54.3812 23.8843C53.9775 23.1641 53.7757 22.3963 53.7757 21.5811V10.7651H58.1685V20.002C58.1685 20.5481 58.2358 21.0666 58.3704 21.5573C58.5128 22.0401 58.774 22.4636 59.1539 22.8277C59.5418 23.1918 60.08 23.4807 60.7686 23.6944C61.4651 23.9081 62.3675 24.0149 63.4756 24.0149C64.5758 24.0149 65.4702 23.9081 66.1588 23.6944C66.8474 23.4807 67.3816 23.1918 67.7616 22.8277C68.1494 22.4636 68.4106 22.0401 68.5452 21.5573C68.6797 21.0666 68.747 20.5481 68.747 20.002V10.7651H73.1517V21.5811Z" fill="#1E2029"/>
<path d="M80.7939 16.9864L89.8171 10.7651H95.7178L84.7356 18.5892L96.4539 27.0781H90.0308L80.7939 20.2988V27.0781H76.3655V10.7651H80.7939V16.9864Z" fill="#1E2029"/>
<path d="M117 21.5811C117 22.3963 116.798 23.1641 116.395 23.8843C115.991 24.6046 115.386 25.2339 114.578 25.7721C113.771 26.3103 112.762 26.7377 111.551 27.0543C110.348 27.363 108.939 27.5173 107.324 27.5173C105.709 27.5173 104.293 27.363 103.074 27.0543C101.863 26.7377 100.854 26.3103 100.046 25.7721C99.2388 25.2339 98.6333 24.6046 98.2297 23.8843C97.826 23.1641 97.6242 22.3963 97.6242 21.5811V10.7651H102.017V20.002C102.017 20.5481 102.084 21.0666 102.219 21.5573C102.361 22.0401 102.623 22.4636 103.002 22.8277C103.39 23.1918 103.928 23.4807 104.617 23.6944C105.314 23.9081 106.216 24.0149 107.324 24.0149C108.424 24.0149 109.319 23.9081 110.007 23.6944C110.696 23.4807 111.23 23.1918 111.61 22.8277C111.998 22.4636 112.259 22.0401 112.394 21.5573C112.528 21.0666 112.595 20.5481 112.595 20.002V10.7651H117V21.5811Z" fill="#1E2029"/>
<path d="M39.2924 14.2438V17.0813H49.8946V20.56H39.2924V27.0781H34.8877V10.7651H50.4764V14.2438H39.2924Z" stroke="white" stroke-width="0.345603"/>
<path d="M73.1517 21.5811C73.1517 22.3963 72.9499 23.1641 72.5462 23.8843C72.1425 24.6046 71.5371 25.2339 70.7297 25.7721C69.9224 26.3103 68.9132 26.7377 67.7022 27.0543C66.4991 27.363 65.0902 27.5173 63.4756 27.5173C61.8609 27.5173 60.4441 27.363 59.2252 27.0543C58.0142 26.7377 57.005 26.3103 56.1977 25.7721C55.3903 25.2339 54.7848 24.6046 54.3812 23.8843C53.9775 23.1641 53.7757 22.3963 53.7757 21.5811V10.7651H58.1685V20.002C58.1685 20.5481 58.2358 21.0666 58.3704 21.5573C58.5128 22.0401 58.774 22.4636 59.1539 22.8277C59.5418 23.1918 60.08 23.4807 60.7686 23.6944C61.4651 23.9081 62.3675 24.0149 63.4756 24.0149C64.5758 24.0149 65.4702 23.9081 66.1588 23.6944C66.8474 23.4807 67.3816 23.1918 67.7616 22.8277C68.1494 22.4636 68.4106 22.0401 68.5452 21.5573C68.6797 21.0666 68.747 20.5481 68.747 20.002V10.7651H73.1517V21.5811Z" stroke="white" stroke-width="0.345603"/>
<path d="M80.7939 16.9864L89.8171 10.7651H95.7178L84.7356 18.5892L96.4539 27.0781H90.0308L80.7939 20.2988V27.0781H76.3655V10.7651H80.7939V16.9864Z" stroke="white" stroke-width="0.345603"/>
<path d="M117 21.5811C117 22.3963 116.798 23.1641 116.395 23.8843C115.991 24.6046 115.386 25.2339 114.578 25.7721C113.771 26.3103 112.762 26.7377 111.551 27.0543C110.348 27.363 108.939 27.5173 107.324 27.5173C105.709 27.5173 104.293 27.363 103.074 27.0543C101.863 26.7377 100.854 26.3103 100.046 25.7721C99.2388 25.2339 98.6333 24.6046 98.2297 23.8843C97.826 23.1641 97.6242 22.3963 97.6242 21.5811V10.7651H102.017V20.002C102.017 20.5481 102.084 21.0666 102.219 21.5573C102.361 22.0401 102.623 22.4636 103.002 22.8277C103.39 23.1918 103.928 23.4807 104.617 23.6944C105.314 23.9081 106.216 24.0149 107.324 24.0149C108.424 24.0149 109.319 23.9081 110.007 23.6944C110.696 23.4807 111.23 23.1918 111.61 22.8277C111.998 22.4636 112.259 22.0401 112.394 21.5573C112.528 21.0666 112.595 20.5481 112.595 20.002V10.7651H117V21.5811Z" stroke="white" stroke-width="0.345603"/>
<path d="M13.1314 19.3037C14.0036 22.5588 14.2194 25.6425 13.8758 27.9906C13.7039 29.1652 13.3945 30.1387 12.9714 30.8553C12.5495 31.5701 12.0281 32.0091 11.431 32.169C10.8339 32.329 10.1629 32.2096 9.44009 31.8015C8.71543 31.3924 7.96071 30.7041 7.22451 29.7728C5.7529 27.9111 4.39792 25.1327 3.52571 21.8775C2.6535 18.6224 2.4377 15.5387 2.78134 13.1906C2.95325 12.016 3.26268 11.0425 3.68571 10.3259C4.10763 9.61109 4.62906 9.17213 5.22613 9.01214C5.82321 8.85216 6.49426 8.9716 7.21705 9.37965C7.94171 9.78876 8.69643 10.4771 9.43264 11.4084C10.9042 13.2701 12.2592 16.0485 13.1314 19.3037Z" fill="#8B82EC" stroke="#FCFCFC" stroke-width="0.691206"/>
<path d="M24.6385 21.2779C24.3731 21.8362 23.847 22.2696 23.0677 22.5552C22.2863 22.8415 21.2729 22.9697 20.0865 22.9261C17.7151 22.8391 14.7213 22.0688 11.6777 20.6218C8.63418 19.1749 6.14679 17.3394 4.58222 15.5552C3.79952 14.6626 3.25913 13.7957 2.98793 13.009C2.71742 12.2243 2.7214 11.5427 2.98681 10.9844C3.25222 10.4261 3.77831 9.99276 4.55765 9.70716C5.33902 9.42082 6.35244 9.29268 7.53881 9.3362C9.91028 9.42319 12.904 10.1935 15.9476 11.6405C18.9912 13.0874 21.4785 14.9229 23.0431 16.7072C23.8258 17.5998 24.3662 18.4666 24.6374 19.2534C24.9079 20.0381 24.9039 20.7197 24.6385 21.2779Z" fill="#C47CE0" stroke="#FCFCFC" stroke-width="0.691206"/>
<path d="M26.0673 5.34725C26.2273 5.94432 26.1078 6.61538 25.6998 7.33816C25.2907 8.06283 24.6023 8.81755 23.671 9.55375C21.8094 11.0254 19.0309 12.3803 15.7758 13.2525C12.5206 14.1248 9.43691 14.3406 7.08888 13.9969C5.91423 13.825 4.94075 13.5156 4.22412 13.0926C3.50934 12.6706 3.07038 12.1492 2.91039 11.5521C2.75041 10.9551 2.86985 10.284 3.2779 9.56121C3.68701 8.83654 4.37535 8.08182 5.30667 7.34562C7.16831 5.87401 9.94678 4.51903 13.2019 3.64682C16.4571 2.77461 19.5408 2.55882 21.8888 2.90245C23.0635 3.07436 24.0369 3.3838 24.7536 3.80682C25.4683 4.22875 25.9073 4.75018 26.0673 5.34725Z" fill="#FD84C4" stroke="#FCFCFC" stroke-width="0.691206"/>
</svg>
