<svg  viewBox="0 0 764 1112" fill="none" xmlns="http://www.w3.org/2000/svg">
<mask id="mask0_490_570" style="mask-type:alpha" maskUnits="userSpaceOnUse" x="367" y="678" width="328" height="348">
<path d="M600.498 788.212C682.309 877.248 717.587 978.065 679.293 1013.39C641 1048.72 543.635 1005.18 461.824 916.148C380.012 827.112 344.734 726.294 383.028 690.966C421.322 655.637 518.686 699.176 600.498 788.212Z" fill="#FF96CE"/>
</mask>
<g mask="url(#mask0_490_570)">
<path d="M889.515 979.386C858.103 926.692 735.955 942.538 616.701 1014.78C497.446 1087.01 426.174 1188.29 457.586 1240.99C488.997 1293.68 611.157 1277.84 730.399 1205.6C849.642 1133.36 920.926 1032.08 889.515 979.386Z" fill="#958CF1"/>
<path d="M838.211 908.408C825.71 891.244 802.058 882.658 771.472 882.088C717.885 881.315 643.418 904.781 570.089 949.64C517.819 981.743 474.841 1019.34 445.69 1055.75C432.422 1072.39 422.12 1088.77 415.157 1104.23C408.899 1118.38 405.429 1131.73 405.194 1143.77C404.643 1158.17 408.374 1170.72 416.666 1180.8C429.179 1197.97 452.819 1206.56 483.405 1207.13C536.991 1207.9 611.459 1184.43 684.788 1139.57C737.058 1107.47 780.036 1069.88 809.186 1033.47C822.455 1016.83 832.756 1000.45 839.72 984.984C845.978 970.835 849.447 957.486 849.683 945.447C850.234 931.044 846.503 918.492 838.211 908.408Z" fill="#A48DEC"/>
<path d="M786.934 837.437C773.463 822.501 749.994 815.422 720.273 815.711C667.13 816.589 594.763 840.454 523.513 884.497C469.795 917.916 425.942 956.989 396.907 994.509C383.467 1011.96 373.283 1029.03 366.86 1044.97C360.981 1059.81 358.437 1073.57 359.601 1085.68C360.495 1099.76 365.896 1111.57 375.842 1120.6C389.301 1135.54 412.734 1142.63 442.428 1142.33C495.572 1141.45 567.929 1117.6 639.19 1073.55C692.969 1040.13 736.76 1001.05 765.797 963.543C779.235 946.08 789.419 929.011 795.844 913.082C801.723 898.24 804.267 884.478 803.102 872.368C802.271 858.289 796.868 846.469 786.934 837.437Z" fill="#B38FE7"/>
<path d="M735.618 766.46C721.2 753.747 697.907 748.204 669.026 749.417C616.354 751.966 546.081 776.193 476.887 819.425C421.745 854.156 376.974 894.752 348.04 933.372C334.403 951.627 324.375 969.39 318.465 985.79C313 1001.32 311.348 1015.51 313.91 1027.68C314.958 1034.31 317.37 1040.65 320.991 1046.3C324.612 1051.94 329.364 1056.78 334.946 1060.49C349.364 1073.2 372.647 1078.76 401.512 1077.6C454.184 1075.05 524.469 1050.82 593.651 1007.59C648.805 972.856 693.564 932.263 722.51 893.64C736.133 875.375 746.173 857.61 752.071 841.213C757.536 825.684 759.188 811.49 756.638 799.319C755.598 792.682 753.193 786.334 749.574 780.677C745.955 775.02 741.203 770.178 735.618 766.46Z" fill="#C290E2"/>
<path d="M684.312 695.481C668.891 685.015 645.825 680.948 617.827 682.979C565.617 687.212 497.426 711.804 430.311 754.221C373.721 790.267 328.127 832.358 299.242 872.063C285.434 891.13 275.535 909.578 270.117 926.465C265.065 942.669 264.301 957.269 268.255 969.535C272.061 982.957 280.816 993.284 294.072 1000.22C309.496 1010.7 332.56 1014.75 360.557 1012.72C412.77 1008.5 480.96 983.911 548.075 941.493C604.666 905.447 650.269 863.342 679.144 823.652C692.963 804.57 702.839 786.064 708.269 769.249C713.319 753.034 714.086 738.445 710.131 726.179C706.336 712.743 697.571 702.43 684.312 695.481Z" fill="#D292DD"/>
<path d="M633.009 624.513C616.724 616.244 593.761 613.725 566.617 616.615C514.866 622.522 448.758 647.477 383.722 689.079C325.659 726.446 279.221 770.047 250.349 810.843C236.393 830.718 226.59 849.87 221.745 867.206C217.128 884.142 217.287 899.144 222.602 911.463C227.84 924.565 238.286 934.131 253.201 940.039C269.485 948.296 292.449 950.827 319.592 947.925C371.345 942.03 437.451 917.063 502.487 875.461C560.55 838.094 606.99 794.505 635.86 753.697C649.815 733.822 659.618 714.67 664.464 697.334C669.081 680.398 668.924 665.408 663.609 653.089C658.371 639.987 647.923 630.409 633.009 624.513Z" fill="#E193D8"/>
<path d="M581.707 553.536C564.427 547.498 541.686 546.493 515.457 550.246C464.157 557.777 400.152 583.143 337.183 623.932C277.73 662.667 230.375 707.716 201.568 749.619C187.307 770.316 177.756 790.145 173.364 807.962C169.154 825.537 170.16 841.003 176.911 853.386C183.606 866.165 195.727 875.01 212.294 879.853C229.584 885.876 252.327 886.893 278.604 883.132C329.904 875.601 393.909 850.235 456.878 809.446C516.343 770.709 563.698 725.66 592.505 683.757C606.692 663.06 616.305 643.233 620.625 625.428C624.835 607.853 623.817 592.39 617.077 580.004C610.395 567.223 598.288 558.388 581.707 553.536Z" fill="#F095D3"/>
<path d="M570.579 506.911C578.728 519.354 580.615 535.253 576.831 553.512C573.048 571.771 563.629 592.299 549.196 613.808C520.44 656.807 472.224 703.42 411.313 743.41C350.401 783.4 288.502 809.126 237.662 818.33C212.24 822.963 189.683 823.467 171.445 819.655C153.207 815.843 139.416 807.743 131.281 795.311C123.146 782.878 121.233 766.971 125.015 748.7C128.796 730.428 138.28 709.914 152.65 688.404C181.408 645.417 229.634 598.79 290.535 558.814C351.437 518.838 413.304 493.142 464.182 483.87C489.606 479.249 512.163 478.745 530.401 482.556C548.639 486.368 562.427 494.456 570.579 506.911Z" fill="#FF96CE"/>
</g>
<mask id="mask1_490_570" style="mask-type:alpha" maskUnits="userSpaceOnUse" x="361" y="383" width="300" height="162">
<path d="M531.745 400.252C613.475 427.347 670.349 477.878 658.777 513.117C647.205 548.356 571.569 554.958 489.838 527.863C408.108 500.768 351.234 450.236 362.806 414.997C374.378 379.759 450.014 373.157 531.745 400.252Z" fill="#FF96CE"/>
</mask>
<g mask="url(#mask1_490_570)">
<path d="M899.998 370.242C844.84 348.422 760.75 432.708 712.184 558.491C663.618 684.274 668.917 803.969 724.076 825.789C779.234 847.609 863.332 763.314 911.89 637.54C960.448 511.766 955.157 392.062 899.998 370.242Z" fill="#958CF1"/>
<path d="M818.823 346.163C799.12 340.396 775.953 347.787 752.216 365.416C710.763 396.474 667.652 458.437 638.049 536.118C617.023 591.587 606.349 645.775 605.554 690.888C605.232 711.474 607.027 730.109 610.833 746.068C614.403 760.605 619.634 772.882 626.565 782.245C634.651 793.605 644.92 801.019 657.22 803.847C676.931 809.605 700.091 802.223 723.827 784.594C765.281 753.536 808.391 691.572 837.994 613.892C859.02 558.423 869.694 504.235 870.489 459.122C870.812 438.536 869.017 419.901 865.211 403.942C861.64 389.405 856.41 377.128 849.479 367.765C841.392 356.405 831.123 348.991 818.823 346.163Z" fill="#A48DEC"/>
<path d="M737.671 322.074C718.542 318.587 696.406 327.025 673.838 344.8C633.699 376.862 592.43 437.889 563.937 513.717C542.58 571.05 532.11 626.888 532.059 672.784C532.085 694.092 534.377 713.185 538.879 729.192C543.148 744.036 549.331 756.083 557.375 764.673C566.377 774.934 577.484 780.79 590.427 781.835C609.548 785.33 631.66 776.918 654.204 759.152C694.343 727.09 735.612 666.08 764.113 590.243C785.51 532.867 795.932 477.065 795.991 431.177C795.956 409.86 793.665 390.767 789.171 374.768C784.902 359.924 778.719 347.877 770.675 339.287C761.722 328.991 750.606 323.127 737.671 322.074Z" fill="#B38FE7"/>
<path d="M656.479 298.005C637.94 296.781 616.845 306.292 595.465 324.279C556.674 357.343 517.222 417.411 489.821 491.403C468.15 550.582 457.877 608.129 458.554 654.808C458.904 676.849 461.725 696.381 466.89 712.437C471.882 727.563 479.002 739.413 488.151 747.223C492.868 751.683 498.458 755.116 504.564 757.304C510.671 759.492 517.161 760.388 523.624 759.934C542.163 761.159 563.259 751.664 584.657 733.726C623.449 700.663 662.909 640.586 690.301 566.603C711.981 507.415 722.245 449.877 721.576 403.189C721.209 381.148 718.397 361.608 713.224 345.56C708.232 330.435 701.111 318.584 691.971 310.766C687.255 306.295 681.665 302.852 675.555 300.655C669.445 298.458 662.948 297.556 656.479 298.005Z" fill="#C290E2"/>
<path d="M575.302 273.927C557.321 275.016 537.272 285.524 517.052 303.616C479.608 337.698 441.965 396.815 415.673 468.955C393.671 529.997 383.652 589.175 385.007 636.656C385.706 659.421 389.03 679.402 394.86 695.54C400.566 710.939 408.606 722.577 418.877 729.639C429.717 737.674 442.515 740.416 456.755 737.901C474.744 736.819 494.785 726.303 515.005 708.211C552.457 674.137 590.101 615.02 616.392 542.881C638.394 481.838 648.413 422.644 647.058 375.179C646.359 352.398 642.983 332.385 637.205 316.295C631.49 300.889 623.459 289.258 613.188 282.196C602.348 274.144 589.55 271.419 575.302 273.927Z" fill="#D292DD"/>
<path d="M494.131 249.855C476.787 253.138 457.731 264.771 438.672 283.018C402.568 318.11 366.733 376.276 341.551 446.563C319.201 509.487 309.429 570.321 311.438 618.63C312.501 642.1 316.314 662.564 322.847 678.709C329.319 694.412 338.303 705.812 349.646 712.111C361.393 719.055 375.035 720.214 389.936 715.931C407.272 712.64 426.336 701.016 445.387 682.76C481.499 647.677 517.326 589.502 542.508 519.215C564.857 456.291 574.639 395.465 572.621 347.148C571.558 323.678 567.744 303.214 561.211 287.07C554.739 271.367 545.765 259.975 534.422 253.675C522.675 246.731 509.023 245.564 494.131 249.855Z" fill="#E193D8"/>
<path d="M412.956 225.776C396.169 231.357 378.178 244.019 360.328 262.386C325.529 298.456 291.544 355.694 267.464 424.138C244.859 488.93 235.24 551.416 237.953 600.535C239.268 624.816 243.674 645.65 250.839 661.895C257.999 677.847 267.905 689.101 280.385 694.602C293.055 700.438 307.553 700.056 323.089 693.981C339.874 688.384 357.875 675.73 375.756 657.328C410.556 621.258 444.54 564.019 468.62 495.576C491.233 430.775 500.852 368.289 498.139 319.17C496.767 294.933 492.41 274.064 485.197 257.871C478.037 241.919 468.124 230.673 455.651 225.164C442.989 219.319 428.508 219.701 412.956 225.776Z" fill="#F095D3"/>
<path d="M376.9 196.626C390.485 201.345 401.319 212.412 409.211 228.637C417.102 244.861 422.021 266.152 423.685 291.156C427.085 341.085 417.73 405.277 394.752 471.893C371.773 538.509 339.613 594.78 306.154 631.86C289.441 650.424 272.481 664.134 256.277 671.986C240.072 679.837 224.737 681.777 211.169 677.056C197.6 672.336 186.741 661.278 178.841 645.045C170.941 628.813 166.079 607.495 164.367 582.526C160.976 532.605 170.33 468.397 193.309 401.797C216.289 335.198 248.442 278.97 281.89 241.814C298.611 223.258 315.571 209.548 331.775 201.697C347.98 193.845 363.306 191.898 376.9 196.626Z" fill="#FF96CE"/>
</g>
<mask id="mask2_490_570" style="mask-type:alpha" maskUnits="userSpaceOnUse" x="262" y="101" width="177" height="126">
<path d="M328.577 127.591C375.509 99.4953 423.432 93.0542 435.617 113.204C447.802 133.355 419.634 172.465 372.702 200.561C325.77 228.657 277.847 235.098 265.662 214.947C253.478 194.797 281.646 155.686 328.577 127.591Z" fill="#FF96CE"/>
</mask>
<g mask="url(#mask2_490_570)">
<path d="M466.753 -61.9498C433.377 -44.451 439.14 30.8773 479.624 106.294C520.107 181.711 579.983 228.701 613.359 211.202C646.736 193.703 640.972 118.367 600.489 42.9581C560.006 -32.4511 500.13 -79.4486 466.753 -61.9498Z" fill="#958CF1"/>
<path d="M421.502 -32.8722C410.557 -25.7827 404.516 -11.5809 403.173 7.13177C400.959 39.9237 412.949 86.3034 438.113 132.691C456.128 165.761 477.816 193.322 499.226 212.376C509.012 221.05 518.736 227.9 528.004 232.674C536.489 236.973 544.573 239.539 551.958 240.08C560.783 240.893 568.612 239.022 575.073 234.276C586.018 227.18 592.059 212.985 593.402 194.273C595.617 161.481 583.626 115.101 558.463 68.7133C540.448 35.6432 518.76 8.08239 497.35 -10.9712C487.563 -19.6462 477.84 -26.4953 468.572 -31.2698C460.087 -35.5691 452.003 -38.1344 444.618 -38.676C435.792 -39.4885 427.963 -37.6175 421.502 -32.8722Z" fill="#A48DEC"/>
<path d="M376.259 -3.81092C366.65 3.94626 361.542 18.0854 360.754 36.2964C359.567 68.8714 371.871 113.978 396.601 159.065C415.377 193.066 437.945 221.211 460.04 240.231C470.32 249.037 480.47 255.837 490.049 260.296C498.972 264.387 507.34 266.399 514.813 266.085C523.489 266.002 530.914 263.084 536.782 257.291C546.392 249.541 551.503 235.424 552.286 217.229C553.472 184.654 541.177 139.554 516.446 94.4594C497.665 60.4217 475.095 32.3142 453.007 13.2938C442.72 4.48812 432.57 -2.31171 422.998 -6.77192C414.075 -10.8622 405.707 -12.8742 398.233 -12.5606C389.561 -12.5157 382.128 -9.59669 376.259 -3.81092Z" fill="#B38FE7"/>
<path d="M331.008 25.277C322.733 33.687 318.573 47.7693 318.38 65.4966C318.235 97.838 330.829 141.674 355.128 185.476C374.663 220.392 398.136 249.149 420.911 268.143C431.677 277.097 442.258 283.824 452.136 287.985C461.494 291.844 470.156 293.324 477.711 292.156C481.815 291.733 485.786 290.466 489.372 288.434C492.957 286.403 496.079 283.652 498.539 280.356C506.813 271.946 510.981 257.87 511.206 240.154C511.352 207.813 498.757 163.97 474.459 120.175C454.923 85.2516 431.45 56.5015 408.675 37.5002C397.902 28.5546 387.32 21.8198 377.443 17.6665C368.085 13.8076 359.423 12.3274 351.867 13.4879C347.758 13.9055 343.782 15.1692 340.191 17.1988C336.6 19.2283 333.472 21.9793 331.008 25.277Z" fill="#C290E2"/>
<path d="M285.759 54.3556C278.831 63.4548 275.585 77.4465 275.923 94.6598C276.827 126.774 289.712 169.346 313.578 211.848C333.874 247.695 358.238 277.005 381.68 296.005C392.94 305.091 403.946 311.761 414.14 315.637C423.925 319.265 432.865 320.215 440.526 318.198C448.891 316.31 455.516 311.289 460.206 303.399C467.141 294.299 470.38 280.308 470.042 263.095C469.146 230.98 456.26 188.407 432.394 145.906C412.098 110.059 387.726 80.7419 364.292 61.7488C353.024 52.6568 341.981 45.9979 331.833 42.1173C322.04 38.4898 313.107 37.5389 305.447 39.5563C297.073 41.4374 290.456 46.4649 285.759 54.3556Z" fill="#D292DD"/>
<path d="M240.519 83.4332C234.912 93.134 232.619 107.114 233.513 123.833C235.459 155.721 248.636 197.03 272.069 238.231C293.127 275.023 318.392 304.901 342.504 323.929C354.255 333.131 365.696 339.766 376.184 343.306C386.433 346.692 395.65 347.09 403.387 344.241C411.602 341.465 417.815 335.383 421.927 326.444C427.526 316.744 429.827 302.764 428.926 286.046C426.987 254.156 413.803 212.848 390.37 171.647C369.311 134.855 344.054 104.976 319.934 85.9492C308.184 76.7471 296.742 70.1117 286.255 66.572C276.005 63.1859 266.796 62.7875 259.059 65.636C250.844 68.4117 244.623 74.4946 240.519 83.4332Z" fill="#E193D8"/>
<path d="M195.269 112.511C191 122.894 189.645 136.788 191.097 152.974C194.055 184.64 207.552 224.675 230.553 264.584C252.407 302.272 278.531 332.759 303.325 351.784C315.571 361.2 327.437 367.703 338.234 370.981C348.889 374.139 358.418 374.033 366.241 370.307C374.305 366.628 380.13 359.497 383.642 349.511C387.902 339.121 389.265 325.226 387.809 309.01C384.85 277.344 371.353 237.309 348.352 197.401C326.498 159.705 300.374 129.218 275.58 110.193C263.332 100.822 251.469 94.2808 240.677 91.048C230.022 87.8898 220.494 88.0034 212.67 91.7221C204.605 95.3931 198.787 102.516 195.269 112.511Z" fill="#F095D3"/>
<path d="M166.276 117.788C174.181 113.208 184.005 112.577 195.094 115.496C206.183 118.416 218.482 124.861 231.22 134.41C256.689 153.439 283.745 184.505 306.322 223.128C328.899 261.75 342.686 300.507 346.686 331.946C348.706 347.668 348.282 361.499 345.35 372.543C342.417 383.586 336.995 391.764 329.097 396.336C321.198 400.909 311.369 401.555 300.273 398.636C289.176 395.718 276.888 389.233 264.146 379.723C238.685 360.693 211.62 329.62 189.052 291.004C166.483 252.388 152.714 213.652 148.673 182.187C146.661 166.465 147.084 152.634 150.017 141.59C152.95 130.547 158.364 122.369 166.276 117.788Z" fill="#FF96CE"/>
</g>
<mask id="mask3_490_570" style="mask-type:alpha" maskUnits="userSpaceOnUse" x="55" y="28" width="74" height="124">
<path d="M65.9297 79.3707C79.7066 45.7286 102.638 23.1817 117.148 29.0109C131.658 34.8401 132.252 66.8379 118.475 100.48C104.699 134.122 81.7675 156.669 67.2574 150.84C52.7473 145.011 52.1529 113.013 65.9297 79.3707Z" fill="#FF96CE"/>
</mask>
<g mask="url(#mask3_490_570)">
<path d="M63.9357 -76.3632C53.1493 -53.755 86.2246 -16.0822 137.808 7.77878C189.391 31.6397 239.967 32.6754 250.753 10.0672C261.54 -12.541 228.461 -50.2175 176.881 -74.0748C125.302 -97.9321 74.7221 -98.9714 63.9357 -76.3632Z" fill="#958CF1"/>
<path d="M51.4442 -42.8713C48.4453 -34.7404 50.889 -24.793 57.6291 -14.3269C69.5144 3.95828 94.3706 23.7837 126.238 38.3554C148.997 48.7134 171.516 54.6817 190.497 56.2466C199.16 56.9437 207.062 56.6969 213.895 55.5311C220.122 54.4258 225.445 52.5602 229.59 49.9001C234.609 46.8083 238.029 42.6905 239.576 37.5934C242.572 29.4589 240.131 19.5151 233.391 9.04898C221.506 -9.23616 196.65 -29.0615 164.782 -43.6333C142.023 -53.9913 119.504 -59.9595 100.523 -61.5245C91.8603 -62.2216 83.9583 -61.9748 77.1253 -60.809C70.8983 -59.7037 65.5752 -57.8381 61.4306 -55.1779C56.4112 -52.0861 52.9913 -47.9683 51.4442 -42.8713Z" fill="#A48DEC"/>
<path d="M38.9512 -9.39034C36.9292 -1.43857 39.8441 8.1035 46.6796 18.0819C59.0254 35.8415 83.5408 54.8664 114.66 68.921C138.195 79.4689 161.414 85.3964 180.747 86.6697C189.724 87.2398 197.833 86.7967 204.707 85.3393C211.083 83.9483 216.337 81.6759 220.188 78.5263C224.771 75.0195 227.559 70.507 228.373 65.0905C230.398 57.1423 227.494 47.6111 220.662 37.6434C208.316 19.8837 183.807 0.859012 152.685 -13.1992C129.133 -23.7651 105.927 -29.6712 86.598 -30.9479C77.617 -31.5146 69.5079 -31.0715 62.6382 -29.6175C56.2616 -28.2265 51.008 -25.9541 47.1566 -22.8046C42.5606 -19.3192 39.7687 -14.8032 38.9512 -9.39034Z" fill="#B38FE7"/>
<path d="M26.4634 24.1075C25.4117 31.8729 28.8084 41.0063 35.7677 50.4905C48.5744 67.7107 72.7381 85.9452 103.116 99.4899C127.419 110.221 151.364 116.111 171.048 117.1C180.343 117.554 188.653 116.9 195.566 115.165C202.082 113.478 207.28 110.806 210.834 107.17C212.849 105.308 214.457 103.05 215.555 100.541C216.654 98.0318 217.219 95.3259 217.214 92.5948C218.266 84.8293 214.877 75.6961 207.939 66.2053C195.132 48.9852 170.965 30.747 140.59 17.2059C116.284 6.47161 92.3422 0.584415 72.6551 -0.407732C63.3596 -0.854581 55.0466 -0.204589 48.1369 1.53399C41.6209 3.22144 36.4229 5.89338 32.8651 9.52526C30.8452 11.387 29.2331 13.6448 28.131 16.1552C27.029 18.6656 26.4611 21.3737 26.4634 24.1075Z" fill="#C290E2"/>
<path d="M13.9742 57.6C13.9133 65.1937 17.7602 73.9142 24.7972 82.9138C38.0719 99.5946 61.8872 117.042 91.5167 130.07C116.595 140.991 141.235 146.819 161.276 147.545C170.886 147.872 179.399 147.018 186.366 145.006C193.018 143.025 198.153 139.961 201.425 135.833C205.123 131.492 206.648 126.183 206 120.124C206.065 112.527 202.214 103.81 195.177 94.8105C181.906 78.1263 158.091 60.6784 128.461 47.6509C103.383 36.7302 78.7363 30.9013 58.7021 30.1763C49.0852 29.8492 40.5572 30.7235 33.6119 32.715C26.9566 34.6989 21.825 37.76 18.5532 41.8882C14.8477 46.2287 13.3298 51.5378 13.9742 57.6Z" fill="#D292DD"/>
<path d="M1.48677 91.0876C2.36844 98.4732 6.71775 106.807 13.8536 115.322C27.5926 131.467 51.0597 148.128 79.9408 160.639C105.802 171.756 131.146 177.527 151.555 177.999C161.473 178.192 170.204 177.146 177.194 174.838C183.996 172.544 189.058 169.076 192.039 164.476C195.304 159.724 196.187 154.017 194.813 147.632C193.928 140.25 189.583 131.913 182.443 123.401C168.708 107.252 145.237 90.5946 116.356 78.0842C90.4948 66.9663 65.154 61.1925 44.7414 60.7234C34.8237 60.5305 26.0928 61.5765 19.103 63.8842C12.3009 66.1786 7.24249 69.6431 4.26095 74.2429C0.995821 78.995 0.109541 84.7059 1.48677 91.0876Z" fill="#E193D8"/>
<path d="M-11.0032 124.579C-9.13762 131.793 -4.32382 139.707 2.89734 147.716C17.0861 163.339 40.216 179.196 68.3522 191.193C94.9932 202.469 121.038 208.22 141.808 208.419C152.075 208.528 160.979 207.243 168.029 204.672C174.956 202.095 179.983 198.235 182.661 193.135C185.486 187.964 185.744 181.855 183.634 175.154C181.762 167.94 176.952 160.023 169.717 151.999C155.528 136.376 132.398 120.519 104.262 108.522C77.6173 97.2421 51.5726 91.4913 30.8023 91.2927C20.5528 91.2087 11.6354 92.4726 4.60558 95.0649C-2.32134 97.6419 -7.34539 101.505 -10.0268 106.602C-12.8551 111.769 -13.1131 117.871 -11.0032 124.579Z" fill="#F095D3"/>
<path d="M-24.3253 138.952C-21.9443 133.366 -16.9689 129.11 -9.90611 126.233C-2.84327 123.356 6.26792 121.867 16.849 121.85C37.9804 121.781 64.7515 127.467 92.1498 138.951C119.548 150.434 142.323 165.497 156.976 180.584C164.313 188.121 169.598 195.629 172.437 202.66C175.277 209.691 175.65 216.195 173.269 221.774C170.888 227.353 165.916 231.619 158.85 234.5C151.783 237.38 142.662 238.844 132.095 238.883C110.967 238.948 84.1889 233.262 56.7976 221.779C29.4063 210.296 6.64915 195.236 -8.03583 180.152C-15.3695 172.612 -20.6545 165.104 -23.4936 158.073C-26.3328 151.042 -26.71 144.541 -24.3253 138.952Z" fill="#FF96CE"/>
</g>
</svg>
