<svg viewBox="0 0 375 327" fill="none" xmlns="http://www.w3.org/2000/svg">
<g clip-path="url(#clip0_83_521)">
<mask id="mask0_83_521" style="mask-type:alpha" maskUnits="userSpaceOnUse" x="-59" y="1" width="452" height="322">
<path d="M-59 1H393V323H-59V1Z" fill="#C4C4C4"/>
</mask>
<g mask="url(#mask0_83_521)">
<path d="M377.459 575.727C312.525 550.442 309.43 406.594 370.543 254.446C431.655 102.299 533.829 -0.616208 598.762 24.6691C663.695 49.9544 666.79 193.817 605.678 345.95C544.566 498.084 442.392 601.013 377.459 575.727Z" fill="#958CF1"/>
<path d="M288.453 531.323C266.913 520.475 253.145 495.024 247.244 459.94C237.159 398.426 250.87 307.881 288.945 214.236C316.229 147.458 351.314 90.2418 387.437 49.1837C403.955 30.4811 420.691 15.2472 436.963 4.04457C451.872 -6.07571 466.358 -12.822 479.918 -15.576C496.095 -19.18 510.919 -17.4743 523.736 -10.0108C545.276 0.851149 559.044 26.2875 564.945 61.3717C575.03 122.885 561.319 213.43 523.244 307.076C495.96 373.853 460.875 431.07 424.752 472.128C408.234 490.831 391.498 506.065 375.226 517.267C360.317 527.387 345.831 534.134 332.271 536.888C316.094 540.492 301.271 538.786 288.453 531.323Z" fill="#A48DEC"/>
<path d="M199.455 486.937C180.265 474.513 168.234 448.963 163.45 414.697C155.307 353.353 169.828 265.144 207.34 174.06C235.862 105.344 272.467 46.815 309.864 5.66065C327.27 -13.4063 344.804 -28.6467 361.709 -39.3262C377.467 -49.1535 392.578 -54.9195 406.459 -56.0767C422.522 -57.9517 436.79 -54.1706 448.702 -44.5859C467.893 -32.1764 479.925 -6.66861 484.695 27.5681C492.838 88.9122 478.331 177.107 440.819 268.206C412.296 336.993 375.678 395.45 338.294 436.605C320.874 455.672 303.341 470.912 286.449 481.592C270.692 491.419 255.581 497.185 241.699 498.342C225.65 500.288 211.367 496.507 199.455 486.937Z" fill="#B38FE7"/>
<path d="M110.445 442.515C93.6041 428.544 83.3373 402.878 79.7428 369.389C73.5679 308.243 88.8589 222.369 125.807 133.818C155.566 63.1917 193.734 3.29341 232.393 -37.9714C250.673 -57.4311 269.017 -72.6354 286.529 -82.82C303.134 -92.3116 318.885 -97.1403 333.074 -96.7005C340.743 -96.8612 348.32 -95.3935 355.323 -92.3905C362.326 -89.3875 368.603 -84.9146 373.755 -79.2555C390.596 -65.2842 400.877 -39.6335 404.528 -6.17301C410.703 54.9731 395.412 140.861 358.463 229.398C328.704 300.038 290.536 359.923 251.878 401.202C233.584 420.647 215.24 435.866 197.728 446.036C181.123 455.528 165.371 460.356 151.183 459.931C143.506 460.103 135.919 458.644 128.906 455.646C121.893 452.648 115.606 448.176 110.445 442.515Z" fill="#C290E2"/>
<path d="M21.4346 398.103C6.95872 382.513 -1.6009 356.805 -4.11971 324.163C-8.3118 263.201 7.74872 179.649 44.1335 93.6583C75.1302 21.0942 114.845 -40.0594 154.738 -81.4914C173.906 -101.316 193.047 -116.512 211.194 -126.231C228.632 -135.386 244.996 -139.278 259.534 -137.255C275.351 -135.644 288.524 -127.697 298.64 -113.871C313.129 -98.2803 321.675 -72.5724 324.194 -39.9309C328.4 21.0315 312.339 104.583 275.955 190.574C244.958 263.138 205.229 324.306 165.35 365.724C146.168 385.562 126.958 400.745 108.894 410.463C91.4425 419.619 75.0923 423.51 60.5546 421.488C44.7225 419.89 31.5643 411.93 21.4346 398.103Z" fill="#D292DD"/>
<path d="M-67.5608 353.691C-79.7029 336.654 -86.4966 310.746 -87.8969 278.909C-90.1202 218.13 -73.2902 136.9 -37.4688 53.4701C-5.23402 -21.0608 36.0427 -83.4983 77.1698 -125.141C97.2249 -145.3 117.178 -160.532 135.93 -169.685C154.271 -178.491 171.247 -181.401 186.078 -177.825C201.781 -174.498 214.385 -164.448 223.623 -148.5C235.751 -131.462 242.559 -105.554 243.945 -73.7177C246.182 -12.939 229.338 68.2916 193.517 151.721C161.282 226.252 120.019 288.689 78.8784 330.332C58.8233 350.492 38.8707 365.724 20.1181 374.876C1.77746 383.682 -15.1846 386.593 -30.016 383.016C-45.7191 379.689 -58.3364 369.639 -67.5608 353.691Z" fill="#E193D8"/>
<path d="M-156.57 309.285C-166.362 290.643 -171.406 264.678 -171.675 233.717C-171.986 173.122 -154.331 94.2273 -119.073 13.3446C-85.5311 -63.068 -42.7755 -126.86 -0.386879 -168.656C20.5448 -189.337 41.3059 -204.418 60.6802 -213.147C79.8121 -221.617 97.4577 -223.648 112.609 -218.432C128.197 -213.362 140.274 -201.236 148.593 -183.167C158.37 -164.51 163.428 -138.545 163.697 -107.528C164.007 -46.9329 146.352 31.9621 111.094 112.845C77.552 189.272 34.7964 253.064 -7.59225 294.859C-28.5363 315.455 -49.2848 330.608 -68.6576 339.251C-87.7895 347.721 -105.435 349.737 -120.587 344.535C-136.175 339.48 -148.237 327.369 -156.57 309.285Z" fill="#F095D3"/>
<path d="M-211.162 306.097C-195.703 312.911 -177.417 311.803 -157.438 303.683C-137.459 295.563 -115.887 280.489 -94.0677 259.443C-50.4314 217.481 -6.05767 152.375 28.6514 74.0251C63.3605 -4.32515 81.7848 -80.8701 83.4432 -141.281C84.3075 -171.494 80.9992 -197.559 73.5575 -217.764C66.1159 -237.968 54.5943 -252.169 39.1493 -258.968C23.7044 -265.767 5.4046 -264.688 -14.5881 -256.568C-34.5809 -248.448 -56.1265 -233.303 -77.9585 -212.328C-121.581 -170.366 -165.969 -105.246 -200.664 -26.9102C-235.359 51.4257 -253.754 127.927 -255.483 188.396C-256.334 218.609 -253.025 244.674 -245.584 264.879C-238.142 285.083 -226.634 299.284 -211.162 306.097Z" fill="#FF96CE"/>
</g>
</g>
<defs>
<clipPath id="clip0_83_521">
<rect width="375" height="325.812" fill="white" transform="translate(0 0.955078)"/>
</clipPath>
</defs>
</svg>
