<svg  viewBox="0 0 707 1179" fill="none" xmlns="http://www.w3.org/2000/svg">
<mask id="mask0_83_188" style="mask-type:alpha" maskUnits="userSpaceOnUse" x="442" y="745" width="328" height="348">
<path d="M675.664 854.975C757.476 944.011 792.754 1044.83 754.46 1080.16C716.166 1115.49 618.802 1071.95 536.99 982.91C455.179 893.874 419.901 793.057 458.194 757.728C496.488 722.4 593.853 765.938 675.664 854.975Z" fill="#FF96CE"/>
</mask>
<g mask="url(#mask0_83_188)">
<path d="M964.68 1046.15C933.268 993.454 811.121 1009.3 691.866 1081.54C572.612 1153.78 501.339 1255.06 532.751 1307.75C564.163 1360.45 686.323 1344.6 805.565 1272.36C924.807 1200.13 996.092 1098.84 964.68 1046.15Z" fill="#958CF1"/>
<path d="M913.377 975.171C900.876 958.007 877.224 949.42 846.638 948.85C793.051 948.078 718.583 971.544 645.254 1016.4C592.985 1048.51 550.007 1086.1 520.856 1122.51C507.587 1139.15 497.286 1155.53 490.323 1170.99C484.065 1185.14 480.595 1198.49 480.359 1210.53C479.808 1224.93 483.54 1237.48 491.831 1247.57C504.344 1264.73 527.984 1273.32 558.57 1273.89C612.157 1274.66 686.625 1251.19 759.953 1206.34C812.223 1174.23 855.201 1136.64 884.352 1100.23C897.621 1083.59 907.922 1067.21 914.885 1051.75C921.143 1037.6 924.613 1024.25 924.849 1012.21C925.4 997.807 921.668 985.254 913.377 975.171Z" fill="#A48DEC"/>
<path d="M862.099 904.199C848.628 889.263 825.159 882.185 795.439 882.473C742.295 883.352 669.928 907.216 598.679 951.26C544.961 984.679 501.107 1023.75 472.072 1061.27C458.632 1078.72 448.449 1095.79 442.026 1111.73C436.146 1126.57 433.602 1140.34 434.767 1152.45C435.661 1166.53 441.062 1178.34 451.008 1187.37C464.467 1202.3 487.899 1209.39 517.594 1209.09C570.737 1208.21 643.095 1184.36 714.356 1140.32C768.134 1106.89 811.925 1067.81 840.963 1030.31C854.4 1012.84 864.584 995.774 871.009 979.845C876.888 965.003 879.432 951.241 878.268 939.131C877.436 925.052 872.033 913.232 862.099 904.199Z" fill="#B38FE7"/>
<path d="M810.783 833.222C796.366 820.51 773.073 814.967 744.192 816.18C691.52 818.728 621.247 842.955 552.053 886.188C496.91 920.919 452.14 961.514 423.206 1000.13C409.569 1018.39 399.541 1036.15 393.63 1052.55C388.166 1068.08 386.513 1082.27 389.076 1094.44C390.124 1101.07 392.535 1107.41 396.156 1113.06C399.777 1118.71 404.53 1123.54 410.112 1127.25C424.529 1139.96 447.812 1145.52 476.678 1144.36C529.349 1141.81 599.634 1117.58 668.816 1074.35C723.971 1039.62 768.729 999.025 797.675 960.403C811.298 942.137 821.338 924.373 827.237 907.975C832.702 892.446 834.354 878.253 831.803 866.082C830.764 859.445 828.358 853.097 824.74 847.44C821.121 841.783 816.368 836.941 810.783 833.222Z" fill="#C290E2"/>
<path d="M759.478 762.244C744.056 751.778 720.99 747.711 692.993 749.741C640.782 753.975 572.592 778.566 505.477 820.984C448.886 857.03 403.293 899.12 374.408 938.825C360.599 957.893 350.701 976.341 345.283 993.228C340.231 1009.43 339.466 1024.03 343.421 1036.3C347.226 1049.72 355.981 1060.05 369.238 1066.98C384.662 1077.46 407.725 1081.52 435.723 1079.49C487.935 1075.26 556.126 1050.67 623.241 1008.26C679.831 972.209 725.435 930.105 754.31 890.414C768.128 871.333 778.004 852.827 783.435 836.012C788.485 819.796 789.252 805.208 785.297 792.942C781.501 779.506 772.737 769.193 759.478 762.244Z" fill="#D292DD"/>
<path d="M708.175 691.276C691.889 683.007 668.927 680.487 641.783 683.378C590.032 689.284 523.924 714.24 458.888 755.842C400.825 793.209 354.387 836.81 325.514 877.606C311.559 897.48 301.756 916.633 296.91 933.968C292.293 950.905 292.452 965.906 297.767 978.225C303.005 991.328 313.452 1000.89 328.367 1006.8C344.65 1015.06 367.615 1017.59 394.757 1014.69C446.51 1008.79 512.616 983.825 577.652 942.223C635.715 904.857 682.156 861.268 711.026 820.46C724.981 800.585 734.784 781.433 739.63 764.097C744.247 747.161 744.09 732.171 738.775 719.852C733.537 706.75 723.088 697.172 708.175 691.276Z" fill="#E193D8"/>
<path d="M656.872 620.298C639.592 614.261 616.851 613.256 590.623 617.009C539.323 624.54 475.317 649.906 412.349 690.695C352.896 729.429 305.54 774.479 276.733 816.381C262.472 837.079 252.921 856.908 248.529 874.725C244.319 892.3 245.326 907.765 252.077 920.149C258.772 932.928 270.892 941.773 287.46 946.615C304.75 952.639 327.493 953.656 353.769 949.895C405.069 942.364 469.075 916.998 532.043 876.209C591.508 837.472 638.864 792.422 667.671 750.52C681.858 729.823 691.471 709.995 695.791 692.191C700.001 674.616 698.982 659.153 692.243 646.767C685.56 633.986 673.454 625.151 656.872 620.298Z" fill="#F095D3"/>
<path d="M645.744 573.674C653.894 586.117 655.78 602.015 651.997 620.275C648.213 638.534 638.794 659.062 624.362 680.57C595.606 723.57 547.39 770.182 486.478 810.173C425.567 850.163 363.668 875.889 312.827 885.092C287.406 889.725 264.849 890.23 246.61 886.418C228.372 882.606 214.582 874.506 206.447 862.073C198.311 849.64 196.399 833.734 200.18 815.462C203.962 797.191 213.445 776.677 227.815 755.167C256.573 712.179 304.799 665.552 365.701 625.576C426.603 585.6 488.469 559.905 539.348 550.632C564.771 546.011 587.329 545.507 605.567 549.319C623.805 553.131 637.593 561.219 645.744 573.674Z" fill="#FF96CE"/>
</g>
<mask id="mask1_83_188" style="mask-type:alpha" maskUnits="userSpaceOnUse" x="361" y="383" width="300" height="162">
<path d="M531.746 400.252C613.476 427.347 670.35 477.878 658.778 513.117C647.206 548.356 571.57 554.958 489.839 527.863C408.109 500.768 351.235 450.236 362.807 414.997C374.379 379.759 450.015 373.157 531.746 400.252Z" fill="#FF96CE"/>
</mask>
<g mask="url(#mask1_83_188)">
<path d="M899.999 370.242C844.841 348.422 760.751 432.708 712.185 558.491C663.619 684.274 668.918 803.969 724.077 825.789C779.235 847.609 863.333 763.314 911.891 637.54C960.449 511.766 955.158 392.062 899.999 370.242Z" fill="#958CF1"/>
<path d="M818.824 346.163C799.121 340.396 775.954 347.787 752.217 365.416C710.764 396.474 667.653 458.437 638.05 536.118C617.024 591.587 606.35 645.775 605.555 690.888C605.233 711.474 607.028 730.109 610.834 746.068C614.404 760.605 619.635 772.882 626.566 782.245C634.652 793.605 644.921 801.019 657.221 803.847C676.932 809.605 700.091 802.223 723.828 784.594C765.281 753.536 808.392 691.572 837.995 613.892C859.021 558.423 869.695 504.235 870.49 459.122C870.813 438.536 869.018 419.901 865.212 403.942C861.641 389.405 856.411 377.128 849.48 367.765C841.393 356.405 831.124 348.991 818.824 346.163Z" fill="#A48DEC"/>
<path d="M737.672 322.074C718.543 318.587 696.407 327.025 673.839 344.8C633.7 376.862 592.431 437.889 563.938 513.717C542.581 571.05 532.111 626.888 532.06 672.784C532.086 694.092 534.378 713.185 538.88 729.192C543.149 744.036 549.332 756.083 557.376 764.673C566.378 774.934 577.485 780.79 590.428 781.835C609.549 785.33 631.661 776.918 654.205 759.152C694.344 727.09 735.613 666.08 764.114 590.243C785.511 532.867 795.933 477.065 795.992 431.177C795.957 409.86 793.666 390.767 789.172 374.768C784.903 359.924 778.72 347.877 770.676 339.287C761.723 328.991 750.607 323.127 737.672 322.074Z" fill="#B38FE7"/>
<path d="M656.48 298.005C637.941 296.781 616.846 306.292 595.466 324.279C556.675 357.343 517.223 417.411 489.822 491.403C468.151 550.582 457.878 608.129 458.555 654.808C458.905 676.849 461.726 696.381 466.891 712.437C471.883 727.563 479.003 739.413 488.152 747.223C492.869 751.683 498.459 755.116 504.565 757.304C510.672 759.492 517.162 760.388 523.625 759.934C542.164 761.159 563.26 751.664 584.658 733.726C623.45 700.663 662.91 640.586 690.302 566.603C711.982 507.415 722.246 449.877 721.577 403.189C721.21 381.148 718.398 361.608 713.225 345.56C708.233 330.435 701.112 318.584 691.972 310.766C687.256 306.295 681.666 302.852 675.556 300.655C669.446 298.458 662.949 297.556 656.48 298.005Z" fill="#C290E2"/>
<path d="M575.303 273.927C557.322 275.016 537.273 285.524 517.053 303.616C479.609 337.698 441.966 396.815 415.674 468.955C393.672 529.997 383.653 589.175 385.008 636.656C385.707 659.421 389.031 679.402 394.861 695.54C400.567 710.939 408.607 722.577 418.878 729.639C429.718 737.674 442.516 740.416 456.756 737.901C474.745 736.819 494.786 726.303 515.006 708.211C552.458 674.137 590.102 615.02 616.393 542.881C638.395 481.838 648.413 422.644 647.059 375.179C646.36 352.398 642.984 332.385 637.206 316.295C631.491 300.889 623.46 289.258 613.189 282.196C602.349 274.144 589.551 271.419 575.303 273.927Z" fill="#D292DD"/>
<path d="M494.132 249.855C476.788 253.138 457.732 264.771 438.673 283.018C402.569 318.11 366.734 376.276 341.552 446.563C319.202 509.487 309.43 570.321 311.439 618.63C312.502 642.1 316.315 662.564 322.848 678.709C329.32 694.412 338.304 705.812 349.647 712.111C361.394 719.055 375.036 720.214 389.937 715.931C407.273 712.64 426.337 701.016 445.388 682.76C481.5 647.677 517.327 589.502 542.509 519.215C564.858 456.291 574.64 395.465 572.622 347.148C571.559 323.678 567.745 303.214 561.212 287.07C554.74 271.367 545.766 259.975 534.423 253.675C522.676 246.731 509.024 245.564 494.132 249.855Z" fill="#E193D8"/>
<path d="M412.957 225.776C396.17 231.357 378.179 244.019 360.329 262.386C325.53 298.456 291.545 355.694 267.465 424.138C244.86 488.93 235.241 551.416 237.954 600.535C239.269 624.816 243.675 645.65 250.84 661.895C258 677.847 267.906 689.101 280.386 694.602C293.056 700.438 307.554 700.056 323.09 693.981C339.875 688.384 357.876 675.73 375.757 657.328C410.557 621.258 444.541 564.019 468.621 495.576C491.234 430.775 500.853 368.289 498.14 319.17C496.768 294.933 492.411 274.064 485.198 257.871C478.038 241.919 468.125 230.673 455.652 225.164C442.99 219.319 428.509 219.701 412.957 225.776Z" fill="#F095D3"/>
<path d="M376.901 196.626C390.486 201.345 401.32 212.412 409.212 228.637C417.103 244.861 422.022 266.152 423.686 291.156C427.086 341.085 417.731 405.277 394.753 471.893C371.774 538.509 339.614 594.78 306.155 631.86C289.442 650.424 272.482 664.134 256.278 671.986C240.073 679.837 224.738 681.777 211.17 677.056C197.601 672.336 186.742 661.278 178.842 645.045C170.942 628.813 166.08 607.495 164.368 582.526C160.977 532.605 170.331 468.397 193.31 401.797C216.29 335.198 248.443 278.97 281.891 241.814C298.612 223.258 315.572 209.548 331.776 201.697C347.981 193.845 363.307 191.898 376.901 196.626Z" fill="#FF96CE"/>
</g>
<mask id="mask2_83_188" style="mask-type:alpha" maskUnits="userSpaceOnUse" x="262" y="101" width="177" height="126">
<path d="M328.576 127.591C375.508 99.4953 423.431 93.0542 435.616 113.204C447.801 133.355 419.633 172.465 372.701 200.561C325.769 228.657 277.846 235.098 265.661 214.947C253.477 194.797 281.645 155.686 328.576 127.591Z" fill="#FF96CE"/>
</mask>
<g mask="url(#mask2_83_188)">
<path d="M466.753 -61.9498C433.377 -44.451 439.14 30.8773 479.624 106.294C520.107 181.711 579.983 228.701 613.359 211.202C646.736 193.703 640.972 118.367 600.489 42.9581C560.006 -32.4511 500.13 -79.4486 466.753 -61.9498Z" fill="#958CF1"/>
<path d="M421.502 -32.8722C410.557 -25.7827 404.516 -11.5809 403.173 7.13177C400.959 39.9237 412.949 86.3034 438.113 132.691C456.128 165.761 477.816 193.322 499.226 212.376C509.012 221.05 518.736 227.9 528.004 232.674C536.489 236.973 544.573 239.539 551.958 240.08C560.783 240.893 568.612 239.022 575.073 234.276C586.018 227.18 592.059 212.985 593.402 194.273C595.617 161.481 583.626 115.101 558.463 68.7133C540.448 35.6432 518.76 8.08239 497.35 -10.9712C487.563 -19.6462 477.84 -26.4953 468.572 -31.2698C460.087 -35.5691 452.003 -38.1344 444.618 -38.676C435.792 -39.4885 427.963 -37.6175 421.502 -32.8722Z" fill="#A48DEC"/>
<path d="M376.259 -3.81092C366.65 3.94626 361.542 18.0854 360.754 36.2964C359.567 68.8714 371.871 113.978 396.601 159.065C415.377 193.066 437.945 221.211 460.04 240.231C470.32 249.037 480.47 255.837 490.049 260.296C498.972 264.387 507.34 266.399 514.813 266.085C523.489 266.002 530.914 263.084 536.782 257.291C546.392 249.541 551.503 235.424 552.286 217.229C553.472 184.654 541.177 139.554 516.446 94.4594C497.665 60.4217 475.095 32.3142 453.007 13.2938C442.72 4.48812 432.57 -2.31171 422.998 -6.77192C414.075 -10.8622 405.707 -12.8742 398.233 -12.5606C389.561 -12.5157 382.128 -9.59669 376.259 -3.81092Z" fill="#B38FE7"/>
<path d="M331.008 25.277C322.733 33.687 318.573 47.7693 318.38 65.4966C318.235 97.838 330.829 141.674 355.128 185.476C374.663 220.392 398.136 249.149 420.911 268.143C431.677 277.097 442.258 283.824 452.136 287.985C461.494 291.844 470.156 293.324 477.711 292.156C481.815 291.733 485.786 290.466 489.372 288.434C492.957 286.403 496.079 283.652 498.539 280.356C506.813 271.946 510.981 257.87 511.206 240.154C511.352 207.813 498.757 163.97 474.459 120.175C454.923 85.2516 431.45 56.5015 408.675 37.5002C397.902 28.5546 387.32 21.8198 377.443 17.6665C368.085 13.8076 359.423 12.3274 351.867 13.4879C347.758 13.9055 343.782 15.1692 340.191 17.1988C336.6 19.2283 333.472 21.9793 331.008 25.277Z" fill="#C290E2"/>
<path d="M285.759 54.3556C278.831 63.4548 275.585 77.4465 275.923 94.6598C276.827 126.774 289.712 169.346 313.578 211.848C333.874 247.695 358.238 277.005 381.68 296.005C392.94 305.091 403.946 311.761 414.14 315.637C423.925 319.265 432.865 320.215 440.526 318.198C448.891 316.31 455.516 311.289 460.206 303.399C467.141 294.299 470.38 280.308 470.042 263.095C469.146 230.98 456.26 188.407 432.394 145.906C412.098 110.059 387.726 80.7419 364.292 61.7488C353.024 52.6568 341.981 45.9979 331.833 42.1173C322.04 38.4898 313.107 37.5389 305.447 39.5563C297.073 41.4374 290.456 46.4649 285.759 54.3556Z" fill="#D292DD"/>
<path d="M240.519 83.4332C234.912 93.134 232.619 107.114 233.513 123.833C235.459 155.721 248.636 197.03 272.069 238.231C293.127 275.023 318.392 304.901 342.504 323.929C354.255 333.131 365.696 339.766 376.184 343.306C386.433 346.692 395.65 347.09 403.387 344.241C411.602 341.465 417.815 335.383 421.927 326.444C427.526 316.744 429.827 302.764 428.926 286.046C426.987 254.156 413.803 212.848 390.37 171.647C369.311 134.855 344.054 104.976 319.934 85.9492C308.184 76.7471 296.742 70.1117 286.255 66.572C276.005 63.1859 266.796 62.7875 259.059 65.636C250.844 68.4117 244.623 74.4946 240.519 83.4332Z" fill="#E193D8"/>
<path d="M195.269 112.511C191 122.894 189.645 136.788 191.097 152.974C194.055 184.64 207.552 224.675 230.553 264.584C252.407 302.272 278.531 332.759 303.325 351.784C315.571 361.2 327.437 367.703 338.234 370.981C348.889 374.139 358.418 374.033 366.241 370.307C374.305 366.628 380.13 359.497 383.642 349.511C387.902 339.121 389.265 325.226 387.809 309.01C384.85 277.344 371.353 237.309 348.352 197.401C326.498 159.705 300.374 129.218 275.58 110.193C263.332 100.822 251.469 94.2808 240.677 91.048C230.022 87.8898 220.494 88.0034 212.67 91.7221C204.605 95.3931 198.787 102.516 195.269 112.511Z" fill="#F095D3"/>
<path d="M166.276 117.788C174.181 113.208 184.005 112.577 195.094 115.496C206.183 118.416 218.482 124.861 231.22 134.41C256.689 153.439 283.745 184.505 306.322 223.128C328.899 261.75 342.686 300.507 346.686 331.946C348.706 347.668 348.282 361.499 345.35 372.543C342.417 383.586 336.995 391.764 329.097 396.336C321.198 400.909 311.369 401.555 300.273 398.636C289.176 395.718 276.888 389.233 264.146 379.723C238.685 360.693 211.62 329.62 189.052 291.004C166.483 252.388 152.714 213.652 148.673 182.187C146.661 166.465 147.084 152.634 150.017 141.59C152.95 130.547 158.364 122.369 166.276 117.788Z" fill="#FF96CE"/>
</g>
<mask id="mask3_83_188" style="mask-type:alpha" maskUnits="userSpaceOnUse" x="55" y="28" width="74" height="124">
<path d="M65.9307 79.3707C79.7076 45.7286 102.639 23.1817 117.149 29.0109C131.659 34.8401 132.253 66.8379 118.476 100.48C104.7 134.122 81.7685 156.669 67.2584 150.84C52.7483 145.011 52.1539 113.013 65.9307 79.3707Z" fill="#FF96CE"/>
</mask>
<g mask="url(#mask3_83_188)">
<path d="M63.9352 -76.3632C53.1488 -53.755 86.2241 -16.0822 137.807 7.77878C189.39 31.6397 239.966 32.6754 250.753 10.0672C261.539 -12.541 228.461 -50.2175 176.881 -74.0748C125.301 -97.9321 74.7216 -98.9714 63.9352 -76.3632Z" fill="#958CF1"/>
<path d="M51.4447 -42.8713C48.4458 -34.7404 50.8895 -24.793 57.6296 -14.3269C69.5149 3.95828 94.3711 23.7837 126.239 38.3554C148.998 48.7134 171.516 54.6817 190.498 56.2466C199.161 56.9437 207.063 56.6969 213.896 55.5311C220.123 54.4258 225.446 52.5602 229.59 49.9001C234.61 46.8083 238.03 42.6905 239.577 37.5934C242.572 29.4589 240.132 19.5151 233.392 9.04898C221.506 -9.23616 196.65 -29.0615 164.783 -43.6333C142.024 -53.9913 119.505 -59.9595 100.523 -61.5245C91.8608 -62.2216 83.9588 -61.9748 77.1258 -60.809C70.8988 -59.7037 65.5756 -57.8381 61.4311 -55.1779C56.4117 -52.0861 52.9918 -47.9683 51.4447 -42.8713Z" fill="#A48DEC"/>
<path d="M38.9512 -9.39034C36.9292 -1.43857 39.8441 8.1035 46.6796 18.0819C59.0254 35.8415 83.5408 54.8664 114.66 68.921C138.195 79.4689 161.414 85.3964 180.747 86.6697C189.724 87.2398 197.833 86.7967 204.707 85.3393C211.083 83.9483 216.337 81.6759 220.188 78.5263C224.771 75.0195 227.559 70.507 228.373 65.0905C230.398 57.1423 227.494 47.6111 220.662 37.6434C208.316 19.8837 183.807 0.859012 152.685 -13.1992C129.133 -23.7651 105.927 -29.6712 86.598 -30.9479C77.617 -31.5146 69.5079 -31.0715 62.6382 -29.6175C56.2616 -28.2265 51.008 -25.9541 47.1566 -22.8046C42.5606 -19.3192 39.7687 -14.8032 38.9512 -9.39034Z" fill="#B38FE7"/>
<path d="M26.4639 24.1075C25.4121 31.8729 28.8089 41.0063 35.7682 50.4905C48.5749 67.7107 72.7386 85.9452 103.116 99.4899C127.42 110.221 151.365 116.111 171.048 117.1C180.344 117.554 188.653 116.9 195.566 115.165C202.082 113.478 207.28 110.806 210.835 107.17C212.85 105.308 214.458 103.05 215.556 100.541C216.654 98.0318 217.219 95.3259 217.215 92.5948C218.267 84.8293 214.877 75.6961 207.939 66.2053C195.132 48.9852 170.965 30.747 140.591 17.2059C116.284 6.47161 92.3427 0.584415 72.6555 -0.407732C63.3601 -0.854581 55.0471 -0.204589 48.1374 1.53399C41.6214 3.22144 36.4234 5.89338 32.8656 9.52526C30.8457 11.387 29.2336 13.6448 28.1315 16.1552C27.0295 18.6656 26.4616 21.3737 26.4639 24.1075Z" fill="#C290E2"/>
<path d="M13.9742 57.6C13.9133 65.1937 17.7602 73.9142 24.7972 82.9138C38.0719 99.5946 61.8872 117.042 91.5167 130.07C116.595 140.991 141.235 146.819 161.276 147.545C170.886 147.872 179.399 147.018 186.366 145.006C193.018 143.025 198.153 139.961 201.425 135.833C205.123 131.492 206.648 126.183 206 120.124C206.065 112.527 202.214 103.81 195.177 94.8105C181.906 78.1263 158.091 60.6784 128.461 47.6509C103.383 36.7302 78.7363 30.9013 58.7021 30.1763C49.0852 29.8492 40.5572 30.7235 33.6119 32.715C26.9566 34.6989 21.825 37.76 18.5532 41.8882C14.8477 46.2287 13.3298 51.5378 13.9742 57.6Z" fill="#D292DD"/>
<path d="M1.48677 91.0876C2.36844 98.4732 6.71775 106.807 13.8536 115.322C27.5926 131.467 51.0597 148.128 79.9408 160.639C105.802 171.756 131.146 177.527 151.555 177.999C161.473 178.192 170.204 177.146 177.194 174.838C183.996 172.544 189.058 169.076 192.039 164.476C195.304 159.724 196.187 154.017 194.813 147.632C193.928 140.25 189.583 131.913 182.443 123.401C168.708 107.252 145.237 90.5946 116.356 78.0842C90.4948 66.9663 65.154 61.1925 44.7414 60.7234C34.8237 60.5305 26.0928 61.5765 19.103 63.8842C12.3009 66.1786 7.24249 69.6431 4.26095 74.2429C0.995821 78.995 0.109541 84.7059 1.48677 91.0876Z" fill="#E193D8"/>
<path d="M-11.0032 124.579C-9.13762 131.793 -4.32382 139.707 2.89734 147.716C17.0861 163.339 40.216 179.196 68.3522 191.193C94.9932 202.469 121.038 208.22 141.808 208.419C152.075 208.528 160.979 207.243 168.029 204.672C174.956 202.095 179.983 198.235 182.661 193.135C185.486 187.964 185.744 181.855 183.634 175.154C181.762 167.94 176.952 160.023 169.717 151.999C155.528 136.376 132.398 120.519 104.262 108.522C77.6173 97.2421 51.5726 91.4913 30.8023 91.2927C20.5528 91.2087 11.6354 92.4726 4.60558 95.0649C-2.32134 97.6419 -7.34539 101.505 -10.0268 106.602C-12.8551 111.769 -13.1131 117.871 -11.0032 124.579Z" fill="#F095D3"/>
<path d="M-24.3248 138.952C-21.9438 133.366 -16.9685 129.11 -9.90562 126.233C-2.84279 123.356 6.2684 121.867 16.8495 121.85C37.9809 121.781 64.752 127.467 92.1503 138.951C119.549 150.434 142.323 165.497 156.976 180.584C164.314 188.121 169.599 195.629 172.438 202.66C175.277 209.691 175.651 216.195 173.27 221.774C170.889 227.353 165.917 231.619 158.85 234.5C151.784 237.38 142.663 238.844 132.095 238.883C110.967 238.948 84.1894 233.262 56.7981 221.779C29.4068 210.296 6.64964 195.236 -8.03534 180.152C-15.3691 172.612 -20.654 165.104 -23.4931 158.073C-26.3323 151.042 -26.7095 144.541 -24.3248 138.952Z" fill="#FF96CE"/>
</g>
</svg>
