<svg viewBox="0 0 30 25" fill="none" xmlns="http://www.w3.org/2000/svg">
<path d="M15.2488 2.95218C16.6612 0.493215 19.9462 -0.63807 22.5991 0.422508C23.546 0.710567 24.1861 1.56427 25.1065 1.87851C26.3364 1.61926 27.4606 1.01434 28.6719 0.679141C28.1985 1.92827 27.3151 2.94433 26.3867 3.88444C27.4235 3.58591 28.463 3.30571 29.521 3.08835C28.783 4.06251 27.8494 4.85598 26.9871 5.71492C26.4555 6.22819 26.5375 7.0269 26.4502 7.69729C26.228 11.8637 24.7257 16.0745 21.758 19.107C18.4465 22.5009 13.7543 24.6718 8.94844 24.5801C5.80622 24.4466 2.73278 23.4384 0.0507812 21.8252C1.5399 21.7624 3.05811 21.799 4.49432 21.3539C6.0575 20.9506 7.48313 20.165 8.78446 19.2353C7.49107 18.9708 6.13949 18.6514 5.12911 17.7531C4.20602 17.0304 3.61619 15.9986 3.20358 14.9275C4.07377 14.8961 4.94132 14.8856 5.81151 14.8464C4.18486 14.2205 2.58995 13.2751 1.76207 11.6908C1.25424 10.8162 1.10612 9.80273 0.979164 8.8181C1.87052 9.03807 2.76187 9.26589 3.65851 9.46492C2.69839 8.45933 1.69595 7.3909 1.36268 6.00298C0.889235 4.40557 1.13522 2.68507 1.86258 1.2055C3.85953 3.44974 6.27174 5.39544 9.12037 6.46387C10.8052 7.15521 12.6197 7.44065 14.4235 7.62134C14.3204 6.03178 14.3362 4.33748 15.2488 2.95218Z" fill="white"/>
</svg>
